<svg width="282" height="165" viewBox="0 0 282 165" fill="none" xmlns="http://www.w3.org/2000/svg">
<path d="M0 62L6.22433 132.405L35.5 141L64.9532 132.409L71 62H0ZM55.4155 85.8896H23.9625L24.6409 93.8528H55.0013L52.5321 119.785L35.784 125.24L18.8978 119.492L17.7618 107.911H25.7454L26.3765 113.484L35.8432 116.704L45.0968 113.69L46.2683 101.82H17.4187L15.2019 77.9225H56.2714L55.4155 85.8896Z" fill="#A8D5BA"/>
<path d="M106 0L111.085 57.0688L135 64L159.064 57.072L164 0H106ZM148.856 47.1104L135.023 50.9632H135L121.154 47.1104L120.197 36.976H126.99L127.473 41.8592L134.997 43.904L142.537 41.856L143.326 32.096H119.901L119.298 25.6768H143.916L144.477 19.2576H118.644L118.077 12.8384H151.93L148.856 47.1104Z" fill="#A8D5BA"/>
<path d="M194 77V164.5H281.5V77H194ZM241.619 145.241C241.619 153.756 236.619 157.644 229.334 157.644C222.753 157.644 218.944 154.247 216.991 150.125L223.691 146.081C224.981 148.366 226.153 150.3 228.984 150.3C231.678 150.3 233.397 149.244 233.397 145.125V117.175H241.619V145.241ZM261.069 157.644C253.431 157.644 248.491 154.012 246.087 149.244L252.788 145.378C254.547 148.25 256.85 150.378 260.894 150.378C264.291 150.378 266.481 148.678 266.481 146.316C266.481 143.503 264.253 142.506 260.484 140.847L258.434 139.969C252.497 137.45 248.572 134.266 248.572 127.566C248.572 121.394 253.278 116.706 260.603 116.706C265.838 116.706 269.588 118.522 272.284 123.288L265.878 127.391C264.472 124.872 262.947 123.875 260.584 123.875C258.184 123.875 256.659 125.4 256.659 127.391C256.659 129.853 258.184 130.847 261.719 132.391L263.769 133.269C270.762 136.256 274.688 139.325 274.688 146.197C274.688 153.581 268.866 157.641 261.072 157.641L261.069 157.644Z" fill="#A8D5BA"/>
</svg>
