<svg width="138" height="138" viewBox="0 0 138 138" fill="none" xmlns="http://www.w3.org/2000/svg">
<path d="M104.412 57.5815C105.389 60.6991 102.884 63.616 99.6564 63.616H75.1336C74.2013 63.6166 73.2852 63.3686 72.4777 62.8968C71.6701 62.425 70.9995 61.7461 70.5334 60.9284L58.2755 39.4276C56.6548 36.5895 57.9004 32.9272 61.0569 32.232C70.1033 30.2259 79.5634 31.7132 87.5834 36.4024C95.6033 41.0916 101.605 48.6447 104.412 57.5815ZM41.5377 43.6561C43.7104 41.2337 47.4685 41.9719 49.0821 44.8028L61.34 66.3036C61.8058 67.1208 62.0511 68.0477 62.0511 68.9912C62.0511 69.9348 61.8058 70.8617 61.34 71.6788L49.0821 93.1797C47.4614 96.025 43.7034 96.7632 41.5306 94.3336C35.286 87.4126 31.8291 78.3733 31.8418 68.9984C31.8293 59.6201 35.2889 50.5777 41.5377 43.6561ZM61.0569 105.765C57.8933 105.062 56.6477 101.407 58.2684 98.5692L70.5334 77.0541C70.9995 76.2364 71.6701 75.5575 72.4777 75.0857C73.2852 74.6139 74.2013 74.3658 75.1336 74.3664H99.6564C102.891 74.3664 105.389 77.2834 104.412 80.401C101.608 89.3405 95.6073 96.8969 87.587 101.589C79.5668 106.281 70.1051 107.77 61.0569 105.765Z" fill="#A8D5BA"/>
<path fill-rule="evenodd" clip-rule="evenodd" d="M132.692 74.3737C134.1 74.3737 135.45 73.8074 136.445 72.7994C137.441 71.7913 138 70.4241 138 68.9985C138 67.5729 137.441 66.2057 136.445 65.1977C135.45 64.1896 134.1 63.6233 132.692 63.6233H127.151C126.869 60.3387 126.307 57.0848 125.473 53.8978L130.668 51.9842C131.323 51.7428 131.925 51.3731 132.439 50.8961C132.953 50.4191 133.37 49.8443 133.664 49.2044C133.959 48.5645 134.126 47.8721 134.157 47.1667C134.187 46.4613 134.08 45.7567 133.842 45.0932C133.604 44.4297 133.239 43.8202 132.768 43.2995C132.297 42.7789 131.729 42.3573 131.097 42.0588C130.465 41.7603 129.781 41.5908 129.085 41.5599C128.388 41.529 127.693 41.6374 127.037 41.8788L121.835 43.7996C120.456 40.8153 118.824 37.957 116.959 35.2566L121.206 31.6516C121.751 31.2018 122.203 30.6465 122.535 30.0181C122.867 29.3898 123.073 28.7008 123.139 27.9914C123.206 27.2819 123.133 26.5661 122.923 25.8857C122.714 25.2052 122.374 24.5736 121.922 24.0277C121.469 23.4817 120.914 23.0323 120.289 22.7056C119.663 22.3788 118.98 22.1813 118.279 22.1244C117.577 22.0676 116.871 22.1526 116.203 22.3744C115.534 22.5963 114.915 22.9506 114.383 23.4168L110.137 27.0289C107.828 24.7092 105.333 22.5876 102.677 20.6862L105.444 15.827C105.799 15.2154 106.03 14.539 106.124 13.8367C106.219 13.1343 106.176 12.4199 105.997 11.7346C105.818 11.0492 105.507 10.4065 105.082 9.8434C104.657 9.28028 104.126 8.8079 103.519 8.45345C102.913 8.099 102.244 7.86949 101.55 7.77812C100.855 7.68675 100.15 7.73533 99.4747 7.92106C98.7991 8.10679 98.1665 8.42601 97.6133 8.86034C97.06 9.29466 96.5971 9.83552 96.2511 10.4518L93.491 15.2966C90.5373 13.909 87.4709 12.782 84.3259 11.9282L85.2884 6.4096C85.5023 5.0191 85.1692 3.59909 84.3607 2.45455C83.5521 1.31 82.3325 0.532219 80.9639 0.288243C79.5953 0.0442681 78.1868 0.35356 77.0408 1.14969C75.8949 1.94583 75.103 3.1653 74.8352 4.5462L73.8727 10.0647C70.6297 9.79466 67.3703 9.79466 64.1273 10.0647L63.1648 4.5462C63.0561 3.83994 62.8094 3.16272 62.4392 2.55417C62.0689 1.94562 61.5825 1.41796 61.0085 1.00207C60.4344 0.586179 59.7842 0.290413 59.0959 0.132076C58.4076 -0.0262617 57.695 -0.0439895 56.9999 0.0799302C56.3047 0.20385 55.641 0.466928 55.0474 0.853769C54.4539 1.24061 53.9425 1.74345 53.5432 2.33285C53.1439 2.92226 52.8646 3.58639 52.7219 4.2864C52.5791 4.98641 52.5756 5.70822 52.7116 6.4096L53.6741 11.9282C50.4988 12.8025 47.4461 13.9253 44.5161 15.2966L41.756 10.4518C41.4075 9.84 40.9434 9.30374 40.3902 8.87361C39.837 8.44347 39.2056 8.12789 38.532 7.94487C37.8583 7.76186 37.1557 7.71499 36.4642 7.80696C35.7727 7.89892 35.1059 8.12791 34.5018 8.48085C33.8977 8.83379 33.3681 9.30377 32.9434 9.86396C32.5186 10.4241 32.207 11.0636 32.0262 11.7457C31.8455 12.4279 31.7992 13.1394 31.8901 13.8396C31.9809 14.5399 32.207 15.2152 32.5555 15.827L35.3298 20.6862C32.6742 22.5876 30.1792 24.7092 27.8704 27.0289L23.624 23.4168C22.5456 22.4996 21.1517 22.0539 19.7488 22.1775C18.3459 22.3012 17.0489 22.9841 16.1433 24.0761C15.2376 25.1681 14.7974 26.5797 14.9195 28.0004C15.0416 29.4211 15.7161 30.7345 16.7944 31.6516L21.0408 35.2566C19.1759 37.957 17.5445 40.8153 16.1645 43.7996L10.9627 41.8788C9.63942 41.3913 8.17907 41.456 6.90292 42.0588C5.62677 42.6616 4.63936 43.7531 4.15791 45.0932C3.67645 46.4332 3.74039 47.9121 4.33567 49.2044C4.93094 50.4967 6.00877 51.4967 7.33207 51.9842L12.5339 53.8978C11.6977 57.0822 11.1341 60.3337 10.8495 63.6162H5.30796C3.9002 63.6162 2.5501 64.1825 1.55467 65.1905C0.559231 66.1986 0 67.5658 0 68.9914C0 70.417 0.559231 71.7842 1.55467 72.7922C2.5501 73.8003 3.9002 74.3666 5.30796 74.3666H10.8495C11.1467 77.6968 11.7082 80.9363 12.5339 84.085L7.33207 86.0057C6.00877 86.4932 4.93094 87.4932 4.33567 88.7855C3.74039 90.0778 3.67645 91.5567 4.15791 92.8967C4.63936 94.2368 5.62677 95.3283 6.90292 95.9311C8.17907 96.5339 9.63942 96.5986 10.9627 96.1111L16.1645 94.1903C17.5611 97.1861 19.1889 100.031 21.0478 102.726L16.8015 106.338C15.7344 107.257 15.0694 108.566 14.9512 109.98C14.833 111.393 15.2714 112.796 16.1707 113.884C17.07 114.972 18.3573 115.655 19.7522 115.785C21.147 115.916 22.5361 115.483 23.6169 114.58L27.8704 110.961C30.1823 113.283 32.6688 115.397 35.3298 117.304L32.5555 122.177C31.8516 123.413 31.6613 124.881 32.0262 126.259C32.3912 127.636 33.2817 128.811 34.5018 129.523C35.7218 130.236 37.1715 130.429 38.532 130.059C39.8924 129.69 41.0521 128.788 41.756 127.552L44.5161 122.686C47.4508 124.067 50.5035 125.192 53.6741 126.062L52.7116 131.58C52.4858 132.976 52.812 134.405 53.6196 135.558C54.4272 136.712 55.6511 137.497 57.0261 137.743C58.401 137.989 59.8164 137.676 60.9654 136.873C62.1145 136.07 62.9047 134.84 63.1648 133.451L64.1344 127.918C67.3749 128.191 70.6322 128.191 73.8727 127.918L74.8352 133.451C74.9439 134.157 75.1906 134.834 75.5608 135.443C75.9311 136.051 76.4175 136.579 76.9915 136.995C77.5656 137.411 78.2158 137.707 78.9041 137.865C79.5924 138.023 80.305 138.041 81.0001 137.917C81.6953 137.793 82.359 137.53 82.9526 137.143C83.5461 136.756 84.0575 136.254 84.4568 135.664C84.8561 135.075 85.1353 134.411 85.2781 133.711C85.4209 133.011 85.4244 132.289 85.2884 131.587L84.3259 126.062C87.4684 125.208 90.5324 124.081 93.4839 122.693L96.2511 127.545C96.955 128.781 98.1147 129.683 99.4751 130.052C100.836 130.422 102.285 130.229 103.505 129.516C104.725 128.803 105.616 127.629 105.981 126.251C106.346 124.874 106.155 123.406 105.452 122.17L102.67 117.304C105.326 115.402 107.821 113.281 110.13 110.961L114.383 114.573C115.462 115.489 116.857 115.934 118.26 115.809C119.663 115.684 120.959 115 121.864 113.907C122.769 112.814 123.207 111.402 123.084 109.981C122.961 108.56 122.285 107.247 121.206 106.331L116.959 102.726C118.809 100.031 120.437 97.1861 121.843 94.1903L127.044 96.1039C127.7 96.3449 128.395 96.4527 129.092 96.4214C129.788 96.3901 130.472 96.2202 131.103 95.9214C131.735 95.6226 132.302 95.2007 132.772 94.6799C133.243 94.1591 133.608 93.5495 133.846 92.886C134.084 92.2224 134.19 91.5179 134.159 90.8127C134.128 90.1075 133.96 89.4153 133.665 88.7758C133.37 88.1362 132.954 87.5618 132.439 87.0853C131.925 86.6087 131.323 86.2395 130.668 85.9985L125.473 84.085C126.289 80.9315 126.849 77.692 127.151 74.3666L132.692 74.3737ZM113.888 52.4429L113.774 52.0845C111.85 46.8488 109.038 41.9932 105.466 37.7363C101.829 33.3948 97.4698 29.7321 92.5851 26.9142C85.4 22.7645 77.2679 20.5902 68.9965 20.6073C66.0893 20.612 63.1882 20.8758 60.3268 21.3957C54.9701 22.3912 49.8227 24.3138 45.1106 27.0791C35.5063 32.7237 28.1251 41.5581 24.2185 52.0845C24.1457 52.323 24.0606 52.5574 23.9637 52.7869C22.1392 57.9915 21.2151 63.4758 21.2319 68.9985C21.2228 77.4811 23.4197 85.8166 27.6015 93.1665C31.7833 100.516 37.8026 106.621 45.054 110.868L45.1177 110.904L45.2592 110.99C49.9947 113.742 55.164 115.645 60.5391 116.616L60.709 116.644L60.8576 116.68C66.3535 117.635 71.9715 117.616 77.4609 116.623C82.9606 115.629 88.2436 113.659 93.0663 110.803C97.7901 108.002 102.007 104.405 105.536 100.168L105.6 100.096L105.664 100.024C109.297 95.6348 112.125 90.6226 114.015 85.2245C115.806 80.1503 116.775 74.6891 116.775 68.9985C116.781 63.3534 115.803 57.7515 113.888 52.4501" fill="#A8D5BA"/>
</svg>
