<svg width="84" height="99" viewBox="0 0 84 99" fill="none" xmlns="http://www.w3.org/2000/svg">
<circle cx="2.25853" cy="75.2516" r="1.64679" transform="rotate(-59.1215 2.25853 75.2516)" fill="white"/>
<circle cx="21.3396" cy="86.6615" r="1.64679" transform="rotate(-59.1215 21.3396 86.6615)" fill="white"/>
<circle cx="13.6687" cy="56.1715" r="1.64679" transform="rotate(-59.1215 13.6687 56.1715)" fill="white"/>
<circle cx="32.7488" cy="67.5812" r="1.64679" transform="rotate(-59.1215 32.7488 67.5812)" fill="white"/>
<circle cx="8.61888" cy="79.0553" r="1.64679" transform="rotate(-59.1215 8.61888 79.0553)" fill="white"/>
<circle cx="27.699" cy="90.465" r="1.64679" transform="rotate(-59.1215 27.699 90.465)" fill="#C8C8C8"/>
<circle cx="20.0281" cy="59.9745" r="1.64679" transform="rotate(-59.1215 20.0281 59.9745)" fill="white"/>
<circle cx="39.1091" cy="71.3842" r="1.64679" transform="rotate(-59.1215 39.1091 71.3842)" fill="#C8C8C8"/>
<circle cx="14.9792" cy="82.8581" r="1.64679" transform="rotate(-59.1215 14.9792 82.8581)" fill="white"/>
<circle cx="34.0593" cy="94.268" r="1.64679" transform="rotate(-59.1215 34.0593 94.268)" fill="#C8C8C8"/>
<circle cx="26.3884" cy="63.7777" r="1.64679" transform="rotate(-59.1215 26.3884 63.7777)" fill="white"/>
<circle cx="45.4695" cy="75.1874" r="1.64679" transform="rotate(-59.1215 45.4695 75.1874)" fill="#C8C8C8"/>
<circle cx="7.96361" cy="65.7116" r="1.64679" transform="rotate(-59.1215 7.96361 65.7116)" fill="white"/>
<circle cx="27.0437" cy="77.1212" r="1.64679" transform="rotate(-59.1215 27.0437 77.1212)" fill="white"/>
<circle cx="19.3728" cy="46.6313" r="1.64679" transform="rotate(-59.1215 19.3728 46.6313)" fill="white"/>
<circle cx="38.4538" cy="58.0409" r="1.64679" transform="rotate(-59.1215 38.4538 58.0409)" fill="white"/>
<circle cx="14.324" cy="69.515" r="1.64679" transform="rotate(-59.1215 14.324 69.515)" fill="white"/>
<circle cx="33.404" cy="80.9247" r="1.64679" transform="rotate(-59.1215 33.404 80.9247)" fill="#C8C8C8"/>
<circle cx="25.7331" cy="50.4342" r="1.64679" transform="rotate(-59.1215 25.7331 50.4342)" fill="white"/>
<circle cx="44.8142" cy="61.8439" r="1.64679" transform="rotate(-59.1215 44.8142 61.8439)" fill="#C8C8C8"/>
<circle cx="20.6833" cy="73.318" r="1.64679" transform="rotate(-59.1215 20.6833 73.318)" fill="white"/>
<circle cx="39.7644" cy="84.7277" r="1.64679" transform="rotate(-59.1215 39.7644 84.7277)" fill="#C8C8C8"/>
<circle cx="32.0935" cy="54.2375" r="1.64679" transform="rotate(-59.1215 32.0935 54.2375)" fill="white"/>
<circle cx="51.1745" cy="65.6474" r="1.64679" transform="rotate(-59.1215 51.1745 65.6474)" fill="#C8C8C8"/>
<circle cx="5.4392" cy="77.1535" r="1.64679" transform="rotate(-59.1215 5.4392 77.1535)" fill="white"/>
<circle cx="24.5193" cy="88.5631" r="1.64679" transform="rotate(-59.1215 24.5193 88.5631)" fill="white"/>
<circle cx="16.8484" cy="58.0732" r="1.64679" transform="rotate(-59.1215 16.8484 58.0732)" fill="white"/>
<circle cx="35.9294" cy="69.4828" r="1.64679" transform="rotate(-59.1215 35.9294 69.4828)" fill="white"/>
<circle cx="11.7986" cy="80.9565" r="1.64679" transform="rotate(-59.1215 11.7986 80.9565)" fill="white"/>
<circle cx="30.8796" cy="92.3661" r="1.64679" transform="rotate(-59.1215 30.8796 92.3661)" fill="#C8C8C8"/>
<circle cx="23.2087" cy="61.8761" r="1.64679" transform="rotate(-59.1215 23.2087 61.8761)" fill="white"/>
<circle cx="42.2888" cy="73.2858" r="1.64679" transform="rotate(-59.1215 42.2888 73.2858)" fill="#C8C8C8"/>
<circle cx="18.1589" cy="84.7599" r="1.64679" transform="rotate(-59.1215 18.1589 84.7599)" fill="white"/>
<circle cx="37.24" cy="96.1696" r="1.64679" transform="rotate(-59.1215 37.24 96.1696)" fill="#C8C8C8"/>
<circle cx="29.5691" cy="65.6794" r="1.64679" transform="rotate(-59.1215 29.5691 65.6794)" fill="white"/>
<circle cx="48.6492" cy="77.0893" r="1.64679" transform="rotate(-59.1215 48.6492 77.0893)" fill="#C8C8C8"/>
<circle cx="11.1433" cy="67.6134" r="1.64679" transform="rotate(-59.1215 11.1433 67.6134)" fill="white"/>
<circle cx="30.2244" cy="79.0231" r="1.64679" transform="rotate(-59.1215 30.2244 79.0231)" fill="white"/>
<circle cx="22.5535" cy="48.5329" r="1.64679" transform="rotate(-59.1215 22.5535 48.5329)" fill="white"/>
<circle cx="41.6335" cy="59.9425" r="1.64679" transform="rotate(-59.1215 41.6335 59.9425)" fill="white"/>
<circle cx="17.5037" cy="71.4162" r="1.64679" transform="rotate(-59.1215 17.5037 71.4162)" fill="white"/>
<circle cx="36.5847" cy="82.8261" r="1.64679" transform="rotate(-59.1215 36.5847 82.8261)" fill="#C8C8C8"/>
<circle cx="28.9138" cy="52.3358" r="1.64679" transform="rotate(-59.1215 28.9138 52.3358)" fill="white"/>
<circle cx="47.9939" cy="63.7455" r="1.64679" transform="rotate(-59.1215 47.9939 63.7455)" fill="#C8C8C8"/>
<circle cx="23.864" cy="75.2196" r="1.64679" transform="rotate(-59.1215 23.864 75.2196)" fill="white"/>
<circle cx="42.9441" cy="86.6293" r="1.64679" transform="rotate(-59.1215 42.9441 86.6293)" fill="#C8C8C8"/>
<circle cx="35.2742" cy="56.1393" r="1.64679" transform="rotate(-59.1215 35.2742 56.1393)" fill="white"/>
<circle cx="54.3542" cy="67.549" r="1.64679" transform="rotate(-59.1215 54.3542 67.549)" fill="#C8C8C8"/>
<circle cx="4.1599" cy="72.0717" r="1.64679" transform="rotate(-59.1215 4.1599 72.0717)" fill="white"/>
<circle cx="23.241" cy="83.4814" r="1.64679" transform="rotate(-59.1215 23.241 83.4814)" fill="white"/>
<circle cx="15.5701" cy="52.9911" r="1.64679" transform="rotate(-59.1215 15.5701 52.9911)" fill="white"/>
<circle cx="34.6501" cy="64.401" r="1.64679" transform="rotate(-59.1215 34.6501 64.401)" fill="white"/>
<circle cx="10.5203" cy="75.8749" r="1.64679" transform="rotate(-59.1215 10.5203 75.8749)" fill="white"/>
<circle cx="29.6013" cy="87.2848" r="1.64679" transform="rotate(-59.1215 29.6013 87.2848)" fill="#C8C8C8"/>
<circle cx="21.9304" cy="56.7946" r="1.64679" transform="rotate(-59.1215 21.9304 56.7946)" fill="white"/>
<circle cx="41.0105" cy="68.2043" r="1.64679" transform="rotate(-59.1215 41.0105 68.2043)" fill="#C8C8C8"/>
<circle cx="16.8806" cy="79.6784" r="1.64679" transform="rotate(-59.1215 16.8806 79.6784)" fill="white"/>
<circle cx="35.9607" cy="91.088" r="1.64679" transform="rotate(-59.1215 35.9607 91.088)" fill="#C8C8C8"/>
<circle cx="28.2908" cy="60.5976" r="1.64679" transform="rotate(-59.1215 28.2908 60.5976)" fill="white"/>
<circle cx="47.3708" cy="72.0072" r="1.64679" transform="rotate(-59.1215 47.3708 72.0072)" fill="#C8C8C8"/>
<circle cx="9.86498" cy="62.5314" r="1.64679" transform="rotate(-59.1215 9.86498 62.5314)" fill="white"/>
<circle cx="28.946" cy="73.9411" r="1.64679" transform="rotate(-59.1215 28.946 73.9411)" fill="white"/>
<circle cx="21.2751" cy="43.4511" r="1.64679" transform="rotate(-59.1215 21.2751 43.4511)" fill="white"/>
<circle cx="40.3552" cy="54.8608" r="1.64679" transform="rotate(-59.1215 40.3552 54.8608)" fill="white"/>
<circle cx="16.2253" cy="66.3349" r="1.64679" transform="rotate(-59.1215 16.2253 66.3349)" fill="white"/>
<circle cx="35.3054" cy="77.7445" r="1.64679" transform="rotate(-59.1215 35.3054 77.7445)" fill="#C8C8C8"/>
<circle cx="27.6345" cy="47.2543" r="1.64679" transform="rotate(-59.1215 27.6345 47.2543)" fill="white"/>
<circle cx="46.7156" cy="58.6642" r="1.64679" transform="rotate(-59.1215 46.7156 58.6642)" fill="#C8C8C8"/>
<circle cx="22.5857" cy="70.1381" r="1.64679" transform="rotate(-59.1215 22.5857 70.1381)" fill="white"/>
<circle cx="41.6658" cy="81.548" r="1.64679" transform="rotate(-59.1215 41.6658 81.548)" fill="#C8C8C8"/>
<circle cx="33.9949" cy="51.0573" r="1.64679" transform="rotate(-59.1215 33.9949 51.0573)" fill="white"/>
<circle cx="53.0759" cy="62.4672" r="1.64679" transform="rotate(-59.1215 53.0759 62.4672)" fill="#C8C8C8"/>
<circle cx="7.34056" cy="73.9733" r="1.64679" transform="rotate(-59.1215 7.34056 73.9733)" fill="white"/>
<circle cx="26.4206" cy="85.383" r="1.64679" transform="rotate(-59.1215 26.4206 85.383)" fill="white"/>
<circle cx="18.7497" cy="54.893" r="1.64679" transform="rotate(-59.1215 18.7497 54.893)" fill="white"/>
<circle cx="37.8308" cy="66.3026" r="1.64679" transform="rotate(-59.1215 37.8308 66.3026)" fill="white"/>
<circle cx="13.7009" cy="77.7768" r="1.64679" transform="rotate(-59.1215 13.7009 77.7768)" fill="white"/>
<circle cx="32.781" cy="89.1864" r="1.64679" transform="rotate(-59.1215 32.781 89.1864)" fill="#C8C8C8"/>
<circle cx="25.1101" cy="58.6962" r="1.64679" transform="rotate(-59.1215 25.1101 58.6962)" fill="white"/>
<circle cx="44.1912" cy="70.1061" r="1.64679" transform="rotate(-59.1215 44.1912 70.1061)" fill="#C8C8C8"/>
<circle cx="20.0603" cy="81.5797" r="1.64679" transform="rotate(-59.1215 20.0603 81.5797)" fill="white"/>
<circle cx="39.1413" cy="92.9894" r="1.64679" transform="rotate(-59.1215 39.1413 92.9894)" fill="#C8C8C8"/>
<circle cx="31.4704" cy="62.4992" r="1.64679" transform="rotate(-59.1215 31.4704 62.4992)" fill="white"/>
<circle cx="50.5505" cy="73.9091" r="1.64679" transform="rotate(-59.1215 50.5505 73.9091)" fill="#C8C8C8"/>
<circle cx="13.0456" cy="64.433" r="1.64679" transform="rotate(-59.1215 13.0456 64.433)" fill="white"/>
<circle cx="32.1257" cy="75.8429" r="1.64679" transform="rotate(-59.1215 32.1257 75.8429)" fill="white"/>
<circle cx="24.4548" cy="45.3527" r="1.64679" transform="rotate(-59.1215 24.4548 45.3527)" fill="white"/>
<circle cx="43.5359" cy="56.7624" r="1.64679" transform="rotate(-59.1215 43.5359 56.7624)" fill="white"/>
<circle cx="19.405" cy="68.2365" r="1.64679" transform="rotate(-59.1215 19.405 68.2365)" fill="white"/>
<circle cx="38.4861" cy="79.6461" r="1.64679" transform="rotate(-59.1215 38.4861 79.6461)" fill="#C8C8C8"/>
<circle cx="30.8152" cy="49.1557" r="1.64679" transform="rotate(-59.1215 30.8152 49.1557)" fill="white"/>
<circle cx="49.8953" cy="60.5653" r="1.64679" transform="rotate(-59.1215 49.8953 60.5653)" fill="#C8C8C8"/>
<circle cx="25.7654" cy="72.0395" r="1.64679" transform="rotate(-59.1215 25.7654 72.0395)" fill="white"/>
<circle cx="44.8464" cy="83.4491" r="1.64679" transform="rotate(-59.1215 44.8464 83.4491)" fill="#C8C8C8"/>
<circle cx="37.1755" cy="52.9591" r="1.64679" transform="rotate(-59.1215 37.1755 52.9591)" fill="white"/>
<circle cx="56.2556" cy="64.3688" r="1.64679" transform="rotate(-59.1215 56.2556 64.3688)" fill="#C8C8C8"/>
<circle cx="6.06224" cy="68.8918" r="1.64679" transform="rotate(-59.1215 6.06224 68.8918)" fill="white"/>
<circle cx="25.1423" cy="80.3017" r="1.64679" transform="rotate(-59.1215 25.1423 80.3017)" fill="white"/>
<circle cx="17.4714" cy="49.8109" r="1.64679" transform="rotate(-59.1215 17.4714 49.8109)" fill="white"/>
<circle cx="36.5525" cy="61.2209" r="1.64679" transform="rotate(-59.1215 36.5525 61.2209)" fill="white"/>
<circle cx="12.4216" cy="72.6947" r="1.64679" transform="rotate(-59.1215 12.4216 72.6947)" fill="white"/>
<circle cx="31.5027" cy="84.1046" r="1.64679" transform="rotate(-59.1215 31.5027 84.1046)" fill="#C8C8C8"/>
<circle cx="23.8318" cy="53.6144" r="1.64679" transform="rotate(-59.1215 23.8318 53.6144)" fill="white"/>
<circle cx="42.9119" cy="65.0241" r="1.64679" transform="rotate(-59.1215 42.9119 65.0241)" fill="#C8C8C8"/>
<circle cx="18.782" cy="76.4982" r="1.64679" transform="rotate(-59.1215 18.782 76.4982)" fill="white"/>
<circle cx="37.863" cy="87.9079" r="1.64679" transform="rotate(-59.1215 37.863 87.9079)" fill="#C8C8C8"/>
<circle cx="30.1921" cy="57.4179" r="1.64679" transform="rotate(-59.1215 30.1921 57.4179)" fill="white"/>
<circle cx="49.2722" cy="68.8275" r="1.64679" transform="rotate(-59.1215 49.2722 68.8275)" fill="#C8C8C8"/>
<circle cx="11.7663" cy="59.3512" r="1.64679" transform="rotate(-59.1215 11.7663 59.3512)" fill="white"/>
<circle cx="30.8474" cy="70.7609" r="1.64679" transform="rotate(-59.1215 30.8474 70.7609)" fill="white"/>
<circle cx="23.1765" cy="40.2709" r="1.64679" transform="rotate(-59.1215 23.1765 40.2709)" fill="white"/>
<circle cx="42.2566" cy="51.6806" r="1.64679" transform="rotate(-59.1215 42.2566 51.6806)" fill="white"/>
<circle cx="18.1267" cy="63.1547" r="1.64679" transform="rotate(-59.1215 18.1267 63.1547)" fill="white"/>
<circle cx="37.2078" cy="74.5644" r="1.64679" transform="rotate(-59.1215 37.2078 74.5644)" fill="#C8C8C8"/>
<circle cx="29.5369" cy="44.0741" r="1.64679" transform="rotate(-59.1215 29.5369 44.0741)" fill="white"/>
<circle cx="48.6169" cy="55.484" r="1.64679" transform="rotate(-59.1215 48.6169 55.484)" fill="#C8C8C8"/>
<circle cx="24.487" cy="66.9579" r="1.64679" transform="rotate(-59.1215 24.487 66.9579)" fill="white"/>
<circle cx="43.5671" cy="78.3676" r="1.64679" transform="rotate(-59.1215 43.5671 78.3676)" fill="#C8C8C8"/>
<circle cx="35.8972" cy="47.8776" r="1.64679" transform="rotate(-59.1215 35.8972 47.8776)" fill="white"/>
<circle cx="54.9773" cy="59.2873" r="1.64679" transform="rotate(-59.1215 54.9773 59.2873)" fill="#C8C8C8"/>
<circle cx="9.24193" cy="70.7931" r="1.64679" transform="rotate(-59.1215 9.24193 70.7931)" fill="white"/>
<circle cx="28.323" cy="82.2028" r="1.64679" transform="rotate(-59.1215 28.323 82.2028)" fill="white"/>
<circle cx="20.6521" cy="51.7128" r="1.64679" transform="rotate(-59.1215 20.6521 51.7128)" fill="white"/>
<circle cx="39.7322" cy="63.1225" r="1.64679" transform="rotate(-59.1215 39.7322 63.1225)" fill="white"/>
<circle cx="15.6023" cy="74.5966" r="1.64679" transform="rotate(-59.1215 15.6023 74.5966)" fill="white"/>
<circle cx="34.6824" cy="86.0063" r="1.64679" transform="rotate(-59.1215 34.6824 86.0063)" fill="#C8C8C8"/>
<circle cx="27.0115" cy="55.516" r="1.64679" transform="rotate(-59.1215 27.0115 55.516)" fill="white"/>
<circle cx="46.0925" cy="66.9257" r="1.64679" transform="rotate(-59.1215 46.0925 66.9257)" fill="#C8C8C8"/>
<circle cx="21.9626" cy="78.3998" r="1.64679" transform="rotate(-59.1215 21.9626 78.3998)" fill="white"/>
<circle cx="41.0427" cy="89.8095" r="1.64679" transform="rotate(-59.1215 41.0427 89.8095)" fill="#C8C8C8"/>
<circle cx="33.3718" cy="59.3195" r="1.64679" transform="rotate(-59.1215 33.3718 59.3195)" fill="white"/>
<circle cx="52.4529" cy="70.7292" r="1.64679" transform="rotate(-59.1215 52.4529 70.7292)" fill="#C8C8C8"/>
<circle cx="14.947" cy="61.2528" r="1.64679" transform="rotate(-59.1215 14.947 61.2528)" fill="white"/>
<circle cx="34.0271" cy="72.6628" r="1.64679" transform="rotate(-59.1215 34.0271 72.6628)" fill="white"/>
<circle cx="26.3562" cy="42.1725" r="1.64679" transform="rotate(-59.1215 26.3562 42.1725)" fill="white"/>
<circle cx="45.4372" cy="53.5822" r="1.64679" transform="rotate(-59.1215 45.4372 53.5822)" fill="white"/>
<circle cx="21.3074" cy="65.0563" r="1.64679" transform="rotate(-59.1215 21.3074 65.0563)" fill="white"/>
<circle cx="40.3874" cy="76.466" r="1.64679" transform="rotate(-59.1215 40.3874 76.466)" fill="#C8C8C8"/>
<circle cx="32.7165" cy="45.976" r="1.64679" transform="rotate(-59.1215 32.7165 45.976)" fill="white"/>
<circle cx="51.7976" cy="57.3857" r="1.64679" transform="rotate(-59.1215 51.7976 57.3857)" fill="#C8C8C8"/>
<circle cx="27.6667" cy="68.8598" r="1.64679" transform="rotate(-59.1215 27.6667 68.8598)" fill="white"/>
<circle cx="46.7478" cy="80.2694" r="1.64679" transform="rotate(-59.1215 46.7478 80.2694)" fill="#C8C8C8"/>
<circle cx="39.0769" cy="49.779" r="1.64679" transform="rotate(-59.1215 39.0769 49.779)" fill="white"/>
<circle cx="58.157" cy="61.1886" r="1.64679" transform="rotate(-59.1215 58.157 61.1886)" fill="#C8C8C8"/>
<circle cx="25.2478" cy="37.2397" r="1.64679" transform="rotate(-59.1215 25.2478 37.2397)" fill="white"/>
<circle cx="44.3288" cy="48.6493" r="1.64679" transform="rotate(-59.1215 44.3288 48.6493)" fill="white"/>
<circle cx="36.6579" cy="18.1591" r="1.64679" transform="rotate(-59.1215 36.6579 18.1591)" fill="white"/>
<circle cx="55.738" cy="29.569" r="1.64679" transform="rotate(-59.1215 55.738 29.569)" fill="white"/>
<circle cx="31.6081" cy="41.0429" r="1.64679" transform="rotate(-59.1215 31.6081 41.0429)" fill="white"/>
<circle cx="50.6882" cy="52.4528" r="1.64679" transform="rotate(-59.1215 50.6882 52.4528)" fill="#C8C8C8"/>
<circle cx="43.0183" cy="21.9621" r="1.64679" transform="rotate(-59.1215 43.0183 21.9621)" fill="white"/>
<circle cx="62.0984" cy="33.372" r="1.64679" transform="rotate(-59.1215 62.0984 33.372)" fill="#C8C8C8"/>
<circle cx="37.9685" cy="44.8459" r="1.64679" transform="rotate(-59.1215 37.9685 44.8459)" fill="white"/>
<circle cx="57.0486" cy="56.2558" r="1.64679" transform="rotate(-59.1215 57.0486 56.2558)" fill="#C8C8C8"/>
<circle cx="49.3777" cy="25.7655" r="1.64679" transform="rotate(-59.1215 49.3777 25.7655)" fill="white"/>
<circle cx="68.4587" cy="37.1752" r="1.64679" transform="rotate(-59.1215 68.4587 37.1752)" fill="#C8C8C8"/>
<circle cx="30.9529" cy="27.6994" r="1.64679" transform="rotate(-59.1215 30.9529 27.6994)" fill="white"/>
<circle cx="50.0329" cy="39.109" r="1.64679" transform="rotate(-59.1215 50.0329 39.109)" fill="white"/>
<circle cx="42.363" cy="8.61905" r="1.64679" transform="rotate(-59.1215 42.363 8.61905)" fill="white"/>
<circle cx="61.4431" cy="20.0287" r="1.64679" transform="rotate(-59.1215 61.4431 20.0287)" fill="white"/>
<circle cx="37.3132" cy="31.5028" r="1.64679" transform="rotate(-59.1215 37.3132 31.5028)" fill="white"/>
<circle cx="56.3933" cy="42.9125" r="1.64679" transform="rotate(-59.1215 56.3933 42.9125)" fill="#C8C8C8"/>
<circle cx="48.7224" cy="12.422" r="1.64679" transform="rotate(-59.1215 48.7224 12.422)" fill="white"/>
<circle cx="67.8035" cy="23.8317" r="1.64679" transform="rotate(-59.1215 67.8035 23.8317)" fill="#C8C8C8"/>
<circle cx="43.6736" cy="35.3058" r="1.64679" transform="rotate(-59.1215 43.6736 35.3058)" fill="white"/>
<circle cx="62.7537" cy="46.7155" r="1.64679" transform="rotate(-59.1215 62.7537 46.7155)" fill="#C8C8C8"/>
<circle cx="55.0828" cy="16.2253" r="1.64679" transform="rotate(-59.1215 55.0828 16.2253)" fill="white"/>
<circle cx="74.1638" cy="27.6352" r="1.64679" transform="rotate(-59.1215 74.1638 27.6352)" fill="#C8C8C8"/>
<circle cx="28.4285" cy="39.1413" r="1.64679" transform="rotate(-59.1215 28.4285 39.1413)" fill="white"/>
<circle cx="47.5085" cy="50.5509" r="1.64679" transform="rotate(-59.1215 47.5085 50.5509)" fill="white"/>
<circle cx="39.8376" cy="20.0609" r="1.64679" transform="rotate(-59.1215 39.8376 20.0609)" fill="white"/>
<circle cx="58.9187" cy="31.4706" r="1.64679" transform="rotate(-59.1215 58.9187 31.4706)" fill="white"/>
<circle cx="34.7878" cy="42.9442" r="1.64679" transform="rotate(-59.1215 34.7878 42.9442)" fill="white"/>
<circle cx="53.8689" cy="54.3539" r="1.64679" transform="rotate(-59.1215 53.8689 54.3539)" fill="#C8C8C8"/>
<circle cx="46.198" cy="23.8639" r="1.64679" transform="rotate(-59.1215 46.198 23.8639)" fill="white"/>
<circle cx="65.279" cy="35.2736" r="1.64679" transform="rotate(-59.1215 65.279 35.2736)" fill="#C8C8C8"/>
<circle cx="41.1482" cy="46.7477" r="1.64679" transform="rotate(-59.1215 41.1482 46.7477)" fill="white"/>
<circle cx="60.2292" cy="58.1574" r="1.64679" transform="rotate(-59.1215 60.2292 58.1574)" fill="#C8C8C8"/>
<circle cx="52.5583" cy="27.6671" r="1.64679" transform="rotate(-59.1215 52.5583 27.6671)" fill="white"/>
<circle cx="71.6384" cy="39.0771" r="1.64679" transform="rotate(-59.1215 71.6384 39.0771)" fill="#C8C8C8"/>
<circle cx="34.1326" cy="29.601" r="1.64679" transform="rotate(-59.1215 34.1326 29.601)" fill="white"/>
<circle cx="53.2136" cy="41.0109" r="1.64679" transform="rotate(-59.1215 53.2136 41.0109)" fill="white"/>
<circle cx="45.5427" cy="10.5207" r="1.64679" transform="rotate(-59.1215 45.5427 10.5207)" fill="white"/>
<circle cx="64.6228" cy="21.9303" r="1.64679" transform="rotate(-59.1215 64.6228 21.9303)" fill="white"/>
<circle cx="40.4929" cy="33.404" r="1.64679" transform="rotate(-59.1215 40.4929 33.404)" fill="white"/>
<circle cx="59.574" cy="44.8139" r="1.64679" transform="rotate(-59.1215 59.574 44.8139)" fill="#C8C8C8"/>
<circle cx="51.9031" cy="14.3236" r="1.64679" transform="rotate(-59.1215 51.9031 14.3236)" fill="white"/>
<circle cx="70.9831" cy="25.7333" r="1.64679" transform="rotate(-59.1215 70.9831 25.7333)" fill="#C8C8C8"/>
<circle cx="46.8533" cy="37.2074" r="1.64679" transform="rotate(-59.1215 46.8533 37.2074)" fill="white"/>
<circle cx="65.9343" cy="48.6171" r="1.64679" transform="rotate(-59.1215 65.9343 48.6171)" fill="#C8C8C8"/>
<circle cx="58.2634" cy="18.1271" r="1.64679" transform="rotate(-59.1215 58.2634 18.1271)" fill="white"/>
<circle cx="77.3435" cy="29.5368" r="1.64679" transform="rotate(-59.1215 77.3435 29.5368)" fill="#C8C8C8"/>
<circle cx="27.1501" cy="34.0595" r="1.64679" transform="rotate(-59.1215 27.1501 34.0595)" fill="white"/>
<circle cx="46.2302" cy="45.4692" r="1.64679" transform="rotate(-59.1215 46.2302 45.4692)" fill="white"/>
<circle cx="38.5593" cy="14.9789" r="1.64679" transform="rotate(-59.1215 38.5593 14.9789)" fill="white"/>
<circle cx="57.6394" cy="26.3888" r="1.64679" transform="rotate(-59.1215 57.6394 26.3888)" fill="white"/>
<circle cx="33.5095" cy="37.8627" r="1.64679" transform="rotate(-59.1215 33.5095 37.8627)" fill="white"/>
<circle cx="52.5906" cy="49.2726" r="1.64679" transform="rotate(-59.1215 52.5906 49.2726)" fill="#C8C8C8"/>
<circle cx="44.9197" cy="18.7824" r="1.64679" transform="rotate(-59.1215 44.9197 18.7824)" fill="white"/>
<circle cx="63.9997" cy="30.192" r="1.64679" transform="rotate(-59.1215 63.9997 30.192)" fill="#C8C8C8"/>
<circle cx="39.8699" cy="41.6662" r="1.64679" transform="rotate(-59.1215 39.8699 41.6662)" fill="white"/>
<circle cx="58.9499" cy="53.0758" r="1.64679" transform="rotate(-59.1215 58.9499 53.0758)" fill="#C8C8C8"/>
<circle cx="51.28" cy="22.5854" r="1.64679" transform="rotate(-59.1215 51.28 22.5854)" fill="white"/>
<circle cx="70.3601" cy="33.995" r="1.64679" transform="rotate(-59.1215 70.3601 33.995)" fill="#C8C8C8"/>
<circle cx="32.8542" cy="24.5192" r="1.64679" transform="rotate(-59.1215 32.8542 24.5192)" fill="white"/>
<circle cx="51.9353" cy="35.9289" r="1.64679" transform="rotate(-59.1215 51.9353 35.9289)" fill="white"/>
<circle cx="44.2644" cy="5.43888" r="1.64679" transform="rotate(-59.1215 44.2644 5.43888)" fill="white"/>
<circle cx="63.3445" cy="16.8485" r="1.64679" transform="rotate(-59.1215 63.3445 16.8485)" fill="white"/>
<circle cx="39.2146" cy="28.3227" r="1.64679" transform="rotate(-59.1215 39.2146 28.3227)" fill="white"/>
<circle cx="58.2947" cy="39.7323" r="1.64679" transform="rotate(-59.1215 58.2947 39.7323)" fill="#C8C8C8"/>
<circle cx="50.6247" cy="9.2421" r="1.64679" transform="rotate(-59.1215 50.6247 9.2421)" fill="white"/>
<circle cx="69.7048" cy="20.652" r="1.64679" transform="rotate(-59.1215 69.7048 20.652)" fill="#C8C8C8"/>
<circle cx="45.5749" cy="32.1259" r="1.64679" transform="rotate(-59.1215 45.5749 32.1259)" fill="white"/>
<circle cx="64.655" cy="43.5356" r="1.64679" transform="rotate(-59.1215 64.655 43.5356)" fill="#C8C8C8"/>
<circle cx="56.9841" cy="13.0451" r="1.64679" transform="rotate(-59.1215 56.9841 13.0451)" fill="white"/>
<circle cx="76.0652" cy="24.4547" r="1.64679" transform="rotate(-59.1215 76.0652 24.4547)" fill="#C8C8C8"/>
<circle cx="30.3298" cy="35.9611" r="1.64679" transform="rotate(-59.1215 30.3298 35.9611)" fill="white"/>
<circle cx="49.4099" cy="47.3708" r="1.64679" transform="rotate(-59.1215 49.4099 47.3708)" fill="white"/>
<circle cx="41.74" cy="16.8808" r="1.64679" transform="rotate(-59.1215 41.74 16.8808)" fill="white"/>
<circle cx="60.8201" cy="28.2904" r="1.64679" transform="rotate(-59.1215 60.8201 28.2904)" fill="white"/>
<circle cx="36.6902" cy="39.7646" r="1.64679" transform="rotate(-59.1215 36.6902 39.7646)" fill="white"/>
<circle cx="55.7703" cy="51.1742" r="1.64679" transform="rotate(-59.1215 55.7703 51.1742)" fill="#C8C8C8"/>
<circle cx="48.0994" cy="20.684" r="1.64679" transform="rotate(-59.1215 48.0994 20.684)" fill="white"/>
<circle cx="67.1804" cy="32.0937" r="1.64679" transform="rotate(-59.1215 67.1804 32.0937)" fill="#C8C8C8"/>
<circle cx="43.0505" cy="43.5673" r="1.64679" transform="rotate(-59.1215 43.0505 43.5673)" fill="white"/>
<circle cx="62.1306" cy="54.9772" r="1.64679" transform="rotate(-59.1215 62.1306 54.9772)" fill="#C8C8C8"/>
<circle cx="54.4597" cy="24.487" r="1.64679" transform="rotate(-59.1215 54.4597 24.487)" fill="white"/>
<circle cx="73.5398" cy="35.8966" r="1.64679" transform="rotate(-59.1215 73.5398 35.8966)" fill="#C8C8C8"/>
<circle cx="36.0349" cy="26.4208" r="1.64679" transform="rotate(-59.1215 36.0349 26.4208)" fill="white"/>
<circle cx="55.115" cy="37.8307" r="1.64679" transform="rotate(-59.1215 55.115 37.8307)" fill="white"/>
<circle cx="47.4441" cy="7.34049" r="1.64679" transform="rotate(-59.1215 47.4441 7.34049)" fill="white"/>
<circle cx="66.5251" cy="18.7502" r="1.64679" transform="rotate(-59.1215 66.5251 18.7502)" fill="white"/>
<circle cx="42.3953" cy="30.2243" r="1.64679" transform="rotate(-59.1215 42.3953 30.2243)" fill="white"/>
<circle cx="61.4753" cy="41.6339" r="1.64679" transform="rotate(-59.1215 61.4753 41.6339)" fill="#C8C8C8"/>
<circle cx="53.8044" cy="11.1435" r="1.64679" transform="rotate(-59.1215 53.8044 11.1435)" fill="white"/>
<circle cx="72.8855" cy="22.5531" r="1.64679" transform="rotate(-59.1215 72.8855 22.5531)" fill="#C8C8C8"/>
<circle cx="48.7546" cy="34.0273" r="1.64679" transform="rotate(-59.1215 48.7546 34.0273)" fill="white"/>
<circle cx="67.8357" cy="45.4369" r="1.64679" transform="rotate(-59.1215 67.8357 45.4369)" fill="#C8C8C8"/>
<circle cx="60.1648" cy="14.9469" r="1.64679" transform="rotate(-59.1215 60.1648 14.9469)" fill="white"/>
<circle cx="79.2449" cy="26.3566" r="1.64679" transform="rotate(-59.1215 79.2449 26.3566)" fill="#C8C8C8"/>
<circle cx="29.0515" cy="30.8795" r="1.64679" transform="rotate(-59.1215 29.0515 30.8795)" fill="white"/>
<circle cx="48.1316" cy="42.2892" r="1.64679" transform="rotate(-59.1215 48.1316 42.2892)" fill="white"/>
<circle cx="40.4607" cy="11.7987" r="1.64679" transform="rotate(-59.1215 40.4607 11.7987)" fill="white"/>
<circle cx="59.5417" cy="23.2084" r="1.64679" transform="rotate(-59.1215 59.5417 23.2084)" fill="white"/>
<circle cx="35.4109" cy="34.6825" r="1.64679" transform="rotate(-59.1215 35.4109 34.6825)" fill="white"/>
<circle cx="54.4919" cy="46.0922" r="1.64679" transform="rotate(-59.1215 54.4919 46.0922)" fill="#C8C8C8"/>
<circle cx="46.821" cy="15.6022" r="1.64679" transform="rotate(-59.1215 46.821 15.6022)" fill="white"/>
<circle cx="65.9021" cy="27.0119" r="1.64679" transform="rotate(-59.1215 65.9021 27.0119)" fill="#C8C8C8"/>
<circle cx="41.7722" cy="38.486" r="1.64679" transform="rotate(-59.1215 41.7722 38.486)" fill="white"/>
<circle cx="60.8523" cy="49.8957" r="1.64679" transform="rotate(-59.1215 60.8523 49.8957)" fill="#C8C8C8"/>
<circle cx="53.1814" cy="19.4054" r="1.64679" transform="rotate(-59.1215 53.1814 19.4054)" fill="white"/>
<circle cx="72.2615" cy="30.8153" r="1.64679" transform="rotate(-59.1215 72.2615 30.8153)" fill="#C8C8C8"/>
<circle cx="34.7556" cy="21.339" r="1.64679" transform="rotate(-59.1215 34.7556 21.339)" fill="white"/>
<circle cx="53.8367" cy="32.7487" r="1.64679" transform="rotate(-59.1215 53.8367 32.7487)" fill="white"/>
<circle cx="46.1658" cy="2.2587" r="1.64679" transform="rotate(-59.1215 46.1658 2.2587)" fill="white"/>
<circle cx="65.2468" cy="13.6684" r="1.64679" transform="rotate(-59.1215 65.2468 13.6684)" fill="white"/>
<circle cx="41.116" cy="25.1425" r="1.64679" transform="rotate(-59.1215 41.116 25.1425)" fill="white"/>
<circle cx="60.197" cy="36.5522" r="1.64679" transform="rotate(-59.1215 60.197 36.5522)" fill="#C8C8C8"/>
<circle cx="52.5261" cy="6.06192" r="1.64679" transform="rotate(-59.1215 52.5261 6.06192)" fill="white"/>
<circle cx="71.6062" cy="17.4716" r="1.64679" transform="rotate(-59.1215 71.6062 17.4716)" fill="#C8C8C8"/>
<circle cx="47.4763" cy="28.9457" r="1.64679" transform="rotate(-59.1215 47.4763 28.9457)" fill="white"/>
<circle cx="66.5574" cy="40.3554" r="1.64679" transform="rotate(-59.1215 66.5574 40.3554)" fill="#C8C8C8"/>
<circle cx="58.8865" cy="9.86539" r="1.64679" transform="rotate(-59.1215 58.8865 9.86539)" fill="white"/>
<circle cx="77.9665" cy="21.2751" r="1.64679" transform="rotate(-59.1215 77.9665 21.2751)" fill="#C8C8C8"/>
<circle cx="32.2312" cy="32.7809" r="1.64679" transform="rotate(-59.1215 32.2312 32.7809)" fill="white"/>
<circle cx="51.3122" cy="44.1906" r="1.64679" transform="rotate(-59.1215 51.3122 44.1906)" fill="white"/>
<circle cx="43.6413" cy="13.7006" r="1.64679" transform="rotate(-59.1215 43.6413 13.7006)" fill="white"/>
<circle cx="62.7214" cy="25.1103" r="1.64679" transform="rotate(-59.1215 62.7214 25.1103)" fill="white"/>
<circle cx="38.5915" cy="36.5844" r="1.64679" transform="rotate(-59.1215 38.5915 36.5844)" fill="white"/>
<circle cx="57.6716" cy="47.9941" r="1.64679" transform="rotate(-59.1215 57.6716 47.9941)" fill="#C8C8C8"/>
<circle cx="50.0017" cy="17.5038" r="1.64679" transform="rotate(-59.1215 50.0017 17.5038)" fill="white"/>
<circle cx="69.0818" cy="28.9135" r="1.64679" transform="rotate(-59.1215 69.0818 28.9135)" fill="#C8C8C8"/>
<circle cx="44.9519" cy="40.3876" r="1.64679" transform="rotate(-59.1215 44.9519 40.3876)" fill="white"/>
<circle cx="64.032" cy="51.7973" r="1.64679" transform="rotate(-59.1215 64.032 51.7973)" fill="#C8C8C8"/>
<circle cx="56.3611" cy="21.3073" r="1.64679" transform="rotate(-59.1215 56.3611 21.3073)" fill="white"/>
<circle cx="75.4421" cy="32.717" r="1.64679" transform="rotate(-59.1215 75.4421 32.717)" fill="#C8C8C8"/>
<circle cx="37.9363" cy="23.2406" r="1.64679" transform="rotate(-59.1215 37.9363 23.2406)" fill="white"/>
<circle cx="57.0163" cy="34.6503" r="1.64679" transform="rotate(-59.1215 57.0163 34.6503)" fill="white"/>
<circle cx="49.3464" cy="4.16031" r="1.64679" transform="rotate(-59.1215 49.3464 4.16031)" fill="white"/>
<circle cx="68.4265" cy="15.57" r="1.64679" transform="rotate(-59.1215 68.4265 15.57)" fill="white"/>
<circle cx="44.2966" cy="27.0441" r="1.64679" transform="rotate(-59.1215 44.2966 27.0441)" fill="white"/>
<circle cx="63.3767" cy="38.4538" r="1.64679" transform="rotate(-59.1215 63.3767 38.4538)" fill="#C8C8C8"/>
<circle cx="55.7058" cy="7.96353" r="1.64679" transform="rotate(-59.1215 55.7058 7.96353)" fill="white"/>
<circle cx="74.7868" cy="19.3734" r="1.64679" transform="rotate(-59.1215 74.7868 19.3734)" fill="#C8C8C8"/>
<circle cx="50.657" cy="30.8473" r="1.64679" transform="rotate(-59.1215 50.657 30.8473)" fill="white"/>
<circle cx="69.737" cy="42.2572" r="1.64679" transform="rotate(-59.1215 69.737 42.2572)" fill="#C8C8C8"/>
<circle cx="62.0662" cy="11.7665" r="1.64679" transform="rotate(-59.1215 62.0662 11.7665)" fill="white"/>
<circle cx="81.1462" cy="23.1764" r="1.64679" transform="rotate(-59.1215 81.1462 23.1764)" fill="#C8C8C8"/>
</svg>
