<svg width="147" height="147" viewBox="0 0 147 147" fill="none" xmlns="http://www.w3.org/2000/svg">
<circle cx="90.4533" cy="141.262" r="4" transform="rotate(-149.121 90.4533 141.262)" fill="white"/>
<circle cx="118.167" cy="94.9162" r="4" transform="rotate(-149.121 118.167 94.9162)" fill="white"/>
<circle cx="44.1076" cy="113.548" r="4" transform="rotate(-149.121 44.1076 113.548)" fill="white"/>
<circle cx="71.8215" cy="67.2023" r="4" transform="rotate(-149.121 71.8215 67.2023)" fill="white"/>
<circle cx="99.6911" cy="125.813" r="4" transform="rotate(-149.121 99.6911 125.813)" fill="white"/>
<circle cx="127.405" cy="79.4677" r="4" transform="rotate(-149.121 127.405 79.4677)" fill="#C8C8C8"/>
<circle cx="53.3454" cy="98.0995" r="4" transform="rotate(-149.121 53.3454 98.0995)" fill="white"/>
<circle cx="81.0593" cy="51.7538" r="4" transform="rotate(-149.121 81.0593 51.7538)" fill="#C8C8C8"/>
<circle cx="108.929" cy="110.365" r="4" transform="rotate(-149.121 108.929 110.365)" fill="white"/>
<circle cx="136.643" cy="64.019" r="4" transform="rotate(-149.121 136.643 64.019)" fill="#C8C8C8"/>
<circle cx="62.5832" cy="82.6511" r="4" transform="rotate(-149.121 62.5832 82.6511)" fill="white"/>
<circle cx="90.2971" cy="36.3051" r="4" transform="rotate(-149.121 90.2971 36.3051)" fill="#C8C8C8"/>
<circle cx="67.2805" cy="127.405" r="4" transform="rotate(-149.121 67.2805 127.405)" fill="white"/>
<circle cx="94.9944" cy="81.0593" r="4" transform="rotate(-149.121 94.9944 81.0593)" fill="white"/>
<circle cx="20.9343" cy="99.6913" r="4" transform="rotate(-149.121 20.9343 99.6913)" fill="white"/>
<circle cx="48.6482" cy="53.3454" r="4" transform="rotate(-149.121 48.6482 53.3454)" fill="white"/>
<circle cx="76.5183" cy="111.956" r="4" transform="rotate(-149.121 76.5183 111.956)" fill="white"/>
<circle cx="104.232" cy="65.6108" r="4" transform="rotate(-149.121 104.232 65.6108)" fill="#C8C8C8"/>
<circle cx="30.1726" cy="84.2426" r="4" transform="rotate(-149.121 30.1726 84.2426)" fill="white"/>
<circle cx="57.8865" cy="37.8969" r="4" transform="rotate(-149.121 57.8865 37.8969)" fill="#C8C8C8"/>
<circle cx="85.7561" cy="96.508" r="4" transform="rotate(-149.121 85.7561 96.508)" fill="white"/>
<circle cx="113.47" cy="50.162" r="4" transform="rotate(-149.121 113.47 50.162)" fill="#C8C8C8"/>
<circle cx="39.4104" cy="68.7941" r="4" transform="rotate(-149.121 39.4104 68.7941)" fill="white"/>
<circle cx="67.1242" cy="22.4482" r="4" transform="rotate(-149.121 67.1242 22.4482)" fill="#C8C8C8"/>
<circle cx="95.0725" cy="133.538" r="4" transform="rotate(-149.121 95.0725 133.538)" fill="white"/>
<circle cx="122.786" cy="87.1918" r="4" transform="rotate(-149.121 122.786 87.1918)" fill="white"/>
<circle cx="48.7263" cy="105.824" r="4" transform="rotate(-149.121 48.7263 105.824)" fill="white"/>
<circle cx="76.4402" cy="59.478" r="4" transform="rotate(-149.121 76.4402 59.478)" fill="white"/>
<circle cx="104.31" cy="118.089" r="4" transform="rotate(-149.121 104.31 118.089)" fill="white"/>
<circle cx="132.024" cy="71.7433" r="4" transform="rotate(-149.121 132.024 71.7433)" fill="#C8C8C8"/>
<circle cx="57.9646" cy="90.3754" r="4" transform="rotate(-149.121 57.9646 90.3754)" fill="white"/>
<circle cx="85.6784" cy="44.0295" r="4" transform="rotate(-149.121 85.6784 44.0295)" fill="#C8C8C8"/>
<circle cx="113.548" cy="102.641" r="4" transform="rotate(-149.121 113.548 102.641)" fill="white"/>
<circle cx="141.262" cy="56.2946" r="4" transform="rotate(-149.121 141.262 56.2946)" fill="#C8C8C8"/>
<circle cx="67.2024" cy="74.9267" r="4" transform="rotate(-149.121 67.2024 74.9267)" fill="white"/>
<circle cx="94.9162" cy="28.5807" r="4" transform="rotate(-149.121 94.9162 28.5807)" fill="#C8C8C8"/>
<circle cx="71.8991" cy="119.681" r="4" transform="rotate(-149.121 71.8991 119.681)" fill="white"/>
<circle cx="99.613" cy="73.3349" r="4" transform="rotate(-149.121 99.613 73.3349)" fill="white"/>
<circle cx="25.5534" cy="91.967" r="4" transform="rotate(-149.121 25.5534 91.967)" fill="white"/>
<circle cx="53.2673" cy="45.621" r="4" transform="rotate(-149.121 53.2673 45.621)" fill="white"/>
<circle cx="81.1374" cy="104.232" r="4" transform="rotate(-149.121 81.1374 104.232)" fill="white"/>
<circle cx="108.851" cy="57.8864" r="4" transform="rotate(-149.121 108.851 57.8864)" fill="#C8C8C8"/>
<circle cx="34.7912" cy="76.5185" r="4" transform="rotate(-149.121 34.7912 76.5185)" fill="white"/>
<circle cx="62.5051" cy="30.1725" r="4" transform="rotate(-149.121 62.5051 30.1725)" fill="#C8C8C8"/>
<circle cx="90.3752" cy="88.7836" r="4" transform="rotate(-149.121 90.3752 88.7836)" fill="white"/>
<circle cx="118.089" cy="42.4377" r="4" transform="rotate(-149.121 118.089 42.4377)" fill="#C8C8C8"/>
<circle cx="44.0295" cy="61.0698" r="4" transform="rotate(-149.121 44.0295 61.0698)" fill="white"/>
<circle cx="71.7434" cy="14.7238" r="4" transform="rotate(-149.121 71.7434 14.7238)" fill="#C8C8C8"/>
<circle cx="82.7292" cy="136.643" r="4" transform="rotate(-149.121 82.7292 136.643)" fill="white"/>
<circle cx="110.443" cy="90.2973" r="4" transform="rotate(-149.121 110.443 90.2973)" fill="white"/>
<circle cx="36.383" cy="108.929" r="4" transform="rotate(-149.121 36.383 108.929)" fill="white"/>
<circle cx="64.0969" cy="62.5834" r="4" transform="rotate(-149.121 64.0969 62.5834)" fill="white"/>
<circle cx="91.967" cy="121.195" r="4" transform="rotate(-149.121 91.967 121.195)" fill="white"/>
<circle cx="119.681" cy="74.8486" r="4" transform="rotate(-149.121 119.681 74.8486)" fill="#C8C8C8"/>
<circle cx="45.6213" cy="93.4806" r="4" transform="rotate(-149.121 45.6213 93.4806)" fill="white"/>
<circle cx="73.3347" cy="47.1347" r="4" transform="rotate(-149.121 73.3347 47.1347)" fill="#C8C8C8"/>
<circle cx="101.205" cy="105.746" r="4" transform="rotate(-149.121 101.205 105.746)" fill="white"/>
<circle cx="128.919" cy="59.4001" r="4" transform="rotate(-149.121 128.919 59.4001)" fill="#C8C8C8"/>
<circle cx="54.8591" cy="78.0322" r="4" transform="rotate(-149.121 54.8591 78.0322)" fill="white"/>
<circle cx="82.573" cy="31.6862" r="4" transform="rotate(-149.121 82.573 31.6862)" fill="#C8C8C8"/>
<circle cx="59.5559" cy="122.786" r="4" transform="rotate(-149.121 59.5559 122.786)" fill="white"/>
<circle cx="87.2698" cy="76.4404" r="4" transform="rotate(-149.121 87.2698 76.4404)" fill="white"/>
<circle cx="13.2102" cy="95.0724" r="4" transform="rotate(-149.121 13.2102 95.0724)" fill="white"/>
<circle cx="40.924" cy="48.7265" r="4" transform="rotate(-149.121 40.924 48.7265)" fill="white"/>
<circle cx="68.7942" cy="107.338" r="4" transform="rotate(-149.121 68.7942 107.338)" fill="white"/>
<circle cx="96.508" cy="60.9916" r="4" transform="rotate(-149.121 96.508 60.9916)" fill="#C8C8C8"/>
<circle cx="22.448" cy="79.6237" r="4" transform="rotate(-149.121 22.448 79.6237)" fill="white"/>
<circle cx="50.1618" cy="33.2778" r="4" transform="rotate(-149.121 50.1618 33.2778)" fill="#C8C8C8"/>
<circle cx="78.032" cy="91.8891" r="4" transform="rotate(-149.121 78.032 91.8891)" fill="white"/>
<circle cx="105.746" cy="45.5431" r="4" transform="rotate(-149.121 105.746 45.5431)" fill="#C8C8C8"/>
<circle cx="31.6863" cy="64.1752" r="4" transform="rotate(-149.121 31.6863 64.1752)" fill="white"/>
<circle cx="59.4001" cy="17.8293" r="4" transform="rotate(-149.121 59.4001 17.8293)" fill="#C8C8C8"/>
<circle cx="87.3479" cy="128.919" r="4" transform="rotate(-149.121 87.3479 128.919)" fill="white"/>
<circle cx="115.062" cy="82.5729" r="4" transform="rotate(-149.121 115.062 82.5729)" fill="white"/>
<circle cx="41.0022" cy="101.205" r="4" transform="rotate(-149.121 41.0022 101.205)" fill="white"/>
<circle cx="68.716" cy="54.8591" r="4" transform="rotate(-149.121 68.716 54.8591)" fill="white"/>
<circle cx="96.5862" cy="113.47" r="4" transform="rotate(-149.121 96.5862 113.47)" fill="white"/>
<circle cx="124.3" cy="67.1242" r="4" transform="rotate(-149.121 124.3 67.1242)" fill="#C8C8C8"/>
<circle cx="50.24" cy="85.7563" r="4" transform="rotate(-149.121 50.24 85.7563)" fill="white"/>
<circle cx="77.9538" cy="39.4106" r="4" transform="rotate(-149.121 77.9538 39.4106)" fill="#C8C8C8"/>
<circle cx="105.824" cy="98.0217" r="4" transform="rotate(-149.121 105.824 98.0217)" fill="white"/>
<circle cx="133.538" cy="51.6757" r="4" transform="rotate(-149.121 133.538 51.6757)" fill="#C8C8C8"/>
<circle cx="59.4782" cy="70.3078" r="4" transform="rotate(-149.121 59.4782 70.3078)" fill="white"/>
<circle cx="87.1916" cy="23.9618" r="4" transform="rotate(-149.121 87.1916 23.9618)" fill="#C8C8C8"/>
<circle cx="64.175" cy="115.062" r="4" transform="rotate(-149.121 64.175 115.062)" fill="white"/>
<circle cx="91.8889" cy="68.716" r="4" transform="rotate(-149.121 91.8889 68.716)" fill="white"/>
<circle cx="17.8293" cy="87.3481" r="4" transform="rotate(-149.121 17.8293 87.3481)" fill="white"/>
<circle cx="45.5432" cy="41.0021" r="4" transform="rotate(-149.121 45.5432 41.0021)" fill="white"/>
<circle cx="73.4128" cy="99.6132" r="4" transform="rotate(-149.121 73.4128 99.6132)" fill="white"/>
<circle cx="101.127" cy="53.2673" r="4" transform="rotate(-149.121 101.127 53.2673)" fill="#C8C8C8"/>
<circle cx="27.0671" cy="71.8993" r="4" transform="rotate(-149.121 27.0671 71.8993)" fill="white"/>
<circle cx="54.781" cy="25.5536" r="4" transform="rotate(-149.121 54.781 25.5536)" fill="#C8C8C8"/>
<circle cx="82.6511" cy="84.1647" r="4" transform="rotate(-149.121 82.6511 84.1647)" fill="white"/>
<circle cx="110.365" cy="37.8188" r="4" transform="rotate(-149.121 110.365 37.8188)" fill="#C8C8C8"/>
<circle cx="36.3049" cy="56.4509" r="4" transform="rotate(-149.121 36.3049 56.4509)" fill="white"/>
<circle cx="64.0188" cy="10.1049" r="4" transform="rotate(-149.121 64.0188 10.1049)" fill="#C8C8C8"/>
<circle cx="75.0046" cy="132.024" r="4" transform="rotate(-149.121 75.0046 132.024)" fill="white"/>
<circle cx="102.718" cy="85.6784" r="4" transform="rotate(-149.121 102.718 85.6784)" fill="white"/>
<circle cx="28.6589" cy="104.31" r="4" transform="rotate(-149.121 28.6589 104.31)" fill="white"/>
<circle cx="56.3728" cy="57.9645" r="4" transform="rotate(-149.121 56.3728 57.9645)" fill="white"/>
<circle cx="84.2429" cy="116.576" r="4" transform="rotate(-149.121 84.2429 116.576)" fill="white"/>
<circle cx="111.956" cy="70.2297" r="4" transform="rotate(-149.121 111.956 70.2297)" fill="#C8C8C8"/>
<circle cx="37.8967" cy="88.8617" r="4" transform="rotate(-149.121 37.8967 88.8617)" fill="white"/>
<circle cx="65.6106" cy="42.5158" r="4" transform="rotate(-149.121 65.6106 42.5158)" fill="#C8C8C8"/>
<circle cx="93.4807" cy="101.127" r="4" transform="rotate(-149.121 93.4807 101.127)" fill="white"/>
<circle cx="121.195" cy="54.7809" r="4" transform="rotate(-149.121 121.195 54.7809)" fill="#C8C8C8"/>
<circle cx="47.1345" cy="73.413" r="4" transform="rotate(-149.121 47.1345 73.413)" fill="white"/>
<circle cx="74.8484" cy="27.0671" r="4" transform="rotate(-149.121 74.8484 27.0671)" fill="#C8C8C8"/>
<circle cx="51.8318" cy="118.167" r="4" transform="rotate(-149.121 51.8318 118.167)" fill="white"/>
<circle cx="79.5456" cy="71.8215" r="4" transform="rotate(-149.121 79.5456 71.8215)" fill="white"/>
<circle cx="5.48606" cy="90.4533" r="4" transform="rotate(-149.121 5.48606 90.4533)" fill="white"/>
<circle cx="33.1999" cy="44.1076" r="4" transform="rotate(-149.121 33.1999 44.1076)" fill="white"/>
<circle cx="61.0696" cy="102.719" r="4" transform="rotate(-149.121 61.0696 102.719)" fill="white"/>
<circle cx="88.7834" cy="56.3727" r="4" transform="rotate(-149.121 88.7834 56.3727)" fill="#C8C8C8"/>
<circle cx="14.7239" cy="75.0048" r="4" transform="rotate(-149.121 14.7239 75.0048)" fill="white"/>
<circle cx="42.4377" cy="28.6589" r="4" transform="rotate(-149.121 42.4377 28.6589)" fill="#C8C8C8"/>
<circle cx="70.3078" cy="87.27" r="4" transform="rotate(-149.121 70.3078 87.27)" fill="white"/>
<circle cx="98.0217" cy="40.924" r="4" transform="rotate(-149.121 98.0217 40.924)" fill="#C8C8C8"/>
<circle cx="23.9616" cy="59.5561" r="4" transform="rotate(-149.121 23.9616 59.5561)" fill="white"/>
<circle cx="51.6755" cy="13.2101" r="4" transform="rotate(-149.121 51.6755 13.2101)" fill="#C8C8C8"/>
<circle cx="79.6238" cy="124.3" r="4" transform="rotate(-149.121 79.6238 124.3)" fill="white"/>
<circle cx="107.338" cy="77.954" r="4" transform="rotate(-149.121 107.338 77.954)" fill="white"/>
<circle cx="33.2776" cy="96.5861" r="4" transform="rotate(-149.121 33.2776 96.5861)" fill="white"/>
<circle cx="60.9914" cy="50.2402" r="4" transform="rotate(-149.121 60.9914 50.2402)" fill="white"/>
<circle cx="88.8615" cy="108.851" r="4" transform="rotate(-149.121 88.8615 108.851)" fill="white"/>
<circle cx="116.575" cy="62.5053" r="4" transform="rotate(-149.121 116.575 62.5053)" fill="#C8C8C8"/>
<circle cx="42.5158" cy="81.1374" r="4" transform="rotate(-149.121 42.5158 81.1374)" fill="white"/>
<circle cx="70.2297" cy="34.7914" r="4" transform="rotate(-149.121 70.2297 34.7914)" fill="#C8C8C8"/>
<circle cx="98.0998" cy="93.4025" r="4" transform="rotate(-149.121 98.0998 93.4025)" fill="white"/>
<circle cx="125.813" cy="47.0568" r="4" transform="rotate(-149.121 125.813 47.0568)" fill="#C8C8C8"/>
<circle cx="51.7536" cy="65.6887" r="4" transform="rotate(-149.121 51.7536 65.6887)" fill="white"/>
<circle cx="79.4675" cy="19.3429" r="4" transform="rotate(-149.121 79.4675 19.3429)" fill="#C8C8C8"/>
<circle cx="56.4509" cy="110.443" r="4" transform="rotate(-149.121 56.4509 110.443)" fill="white"/>
<circle cx="84.1648" cy="64.0971" r="4" transform="rotate(-149.121 84.1648 64.0971)" fill="white"/>
<circle cx="10.1047" cy="82.7292" r="4" transform="rotate(-149.121 10.1047 82.7292)" fill="white"/>
<circle cx="37.8186" cy="36.3832" r="4" transform="rotate(-149.121 37.8186 36.3832)" fill="white"/>
<circle cx="65.6887" cy="94.9943" r="4" transform="rotate(-149.121 65.6887 94.9943)" fill="white"/>
<circle cx="93.4026" cy="48.6484" r="4" transform="rotate(-149.121 93.4026 48.6484)" fill="#C8C8C8"/>
<circle cx="19.343" cy="67.2804" r="4" transform="rotate(-149.121 19.343 67.2804)" fill="white"/>
<circle cx="47.0569" cy="20.9345" r="4" transform="rotate(-149.121 47.0569 20.9345)" fill="#C8C8C8"/>
<circle cx="74.9265" cy="79.5456" r="4" transform="rotate(-149.121 74.9265 79.5456)" fill="white"/>
<circle cx="102.64" cy="33.1999" r="4" transform="rotate(-149.121 102.64 33.1999)" fill="#C8C8C8"/>
<circle cx="28.5808" cy="51.8317" r="4" transform="rotate(-149.121 28.5808 51.8317)" fill="white"/>
<circle cx="56.2947" cy="5.48602" r="4" transform="rotate(-149.121 56.2947 5.48602)" fill="#C8C8C8"/>
</svg>
