<svg width="24" height="24" viewBox="0 0 24 24" fill="none" xmlns="http://www.w3.org/2000/svg">
<g clip-path="url(#clip0_44_526)">
<path d="M18 2H6C4.89543 2 4 2.89543 4 4V20C4 21.1046 4.89543 22 6 22H18C19.1046 22 20 21.1046 20 20V4C20 2.89543 19.1046 2 18 2Z" stroke="white" stroke-width="2" stroke-linecap="round" stroke-linejoin="round"/>
<path d="M12 18H12.01" stroke="white" stroke-width="2" stroke-linecap="round" stroke-linejoin="round"/>
<path d="M21.1787 11.875H15.8213C15.23 11.875 14.75 12.3788 14.75 13V22C14.75 22.6213 15.23 23.125 15.8213 23.125H21.1787C21.7706 23.125 22.25 22.6213 22.25 22V13C22.25 12.3788 21.7706 11.875 21.1787 11.875ZM17.5625 13.75H19.4375Z" fill="#2D2D2D"/>
<path d="M17.5625 13.75H19.4375M21.1787 11.875H15.8213C15.23 11.875 14.75 12.3788 14.75 13V22C14.75 22.6213 15.23 23.125 15.8213 23.125H21.1787C21.7706 23.125 22.25 22.6213 22.25 22V13C22.25 12.3788 21.7706 11.875 21.1787 11.875Z" stroke="white" stroke-width="1.5" stroke-linecap="round" stroke-linejoin="round"/>
</g>
<defs>
<clipPath id="clip0_44_526">
<rect width="24" height="24" fill="white"/>
</clipPath>
</defs>
</svg>
