<svg width="24" height="24" viewBox="0 0 24 24" fill="none" xmlns="http://www.w3.org/2000/svg">
<path d="M13.374 7.08315L17.085 3.37315L16.647 2.93915C16.081 2.37315 15.092 2.37315 14.526 2.93915L12.94 4.52515C12.656 4.80915 12.5 5.18615 12.5 5.58615C12.5 5.98615 12.656 6.36315 12.938 6.64615L13.374 7.08315ZM6.646 12.9391C6.08 12.3731 5.091 12.3731 4.525 12.9391L2.939 14.5251C2.656 14.8091 2.5 15.1861 2.5 15.5861C2.5 15.9861 2.656 16.3631 2.941 16.6481L3.378 17.0801L7.081 13.3771L6.646 12.9391ZM18.437 4.72915L18.083 4.37515L14.375 8.08315L15.025 8.73215C15.0716 8.77859 15.1085 8.83377 15.1337 8.89452C15.1589 8.95526 15.1719 9.02038 15.1719 9.08615C15.1719 9.15192 15.1589 9.21704 15.1337 9.27778C15.1085 9.33853 15.0716 9.3937 15.025 9.44015L9.439 15.0261C9.34364 15.1168 9.21709 15.1674 9.0855 15.1674C8.95391 15.1674 8.82736 15.1168 8.732 15.0261L8.082 14.3761L4.38 18.0861L4.734 18.4401C4.994 18.7001 5.98 19.5451 7.79 19.5451C9.406 19.5451 12.046 18.8331 15.44 15.4401C22.213 8.66515 18.598 4.89015 18.437 4.72915Z" fill="white"/>
</svg>
