<svg width="316" height="254" viewBox="0 0 316 254" fill="none" xmlns="http://www.w3.org/2000/svg">
<rect x="130" y="113" width="113" height="106" rx="16" fill="#2D2D2D"/>
<rect y="23" width="145" height="106" rx="16" fill="#2D2D2D"/>
<path d="M189.5 117L204.5 90L195.5 130.5L200.5 134.5L209 141H164L176.5 116L189.5 117Z" fill="#A8D5BA"/>
<path d="M204.5 90L195.5 130.5L200.5 134.5L204.5 90Z" fill="#728F7D"/>
<path d="M53 0H92L69 51H24L53 0Z" fill="#A8D5BA"/>
<rect x="164" y="141" width="45" height="78" fill="#728F7D"/>
<rect x="24" y="51" width="45" height="78" fill="#728F7D"/>
<path d="M69 51L92 0V129H69V51Z" fill="#586E60"/>
<rect x="47" y="182" width="64" height="72" rx="8" fill="#2D2D2D"/>
<path d="M56 196C56 193.791 57.7909 192 60 192H97C99.2091 192 101 193.791 101 196V254H56V196Z" fill="#728F7D"/>
<path d="M316 136.5C316 149.479 305.479 149 292.5 149C279.521 149 269 149.479 269 136.5C269 123.521 279.521 113 292.5 113C305.479 113 316 123.521 316 136.5Z" fill="#2D2D2D"/>
<rect x="285" y="51" width="17" height="98" fill="#728F7D"/>
<rect x="56" y="192" width="45" height="14" rx="4" fill="#A8D5BA"/>
<path d="M302 50.5002C302 55.1946 298.194 51.5002 293.5 51.5002C288.806 51.5002 285 55.1946 285 50.5002C285 45.8058 288.806 49 293.5 49C298.194 49 302 45.8058 302 50.5002Z" fill="#A8D5BA"/>
</svg>
