<svg width="24" height="24" viewBox="0 0 24 24" fill="none" xmlns="http://www.w3.org/2000/svg">
<path d="M5 20L7.413 17.587M7.413 17.587C7.82568 17.9997 8.3156 18.327 8.85479 18.5504C9.39398 18.7737 9.97188 18.8887 10.5555 18.8887C11.1391 18.8887 11.717 18.7737 12.2562 18.5504C12.7954 18.327 13.2853 17.9997 13.698 17.587C14.1107 17.1743 14.438 16.6844 14.6614 16.1452C14.8847 15.606 14.9997 15.0281 14.9997 14.4445C14.9997 13.8609 14.8847 13.283 14.6614 12.7438C14.438 12.2046 14.1107 11.7147 13.698 11.302C12.8646 10.4686 11.7342 10.0003 10.5555 10.0003C9.37683 10.0003 8.24644 10.4686 7.413 11.302C6.57956 12.1354 6.11133 13.2658 6.11133 14.4445C6.11133 15.6232 6.57956 16.7536 7.413 17.587Z" stroke="white" stroke-width="1.5" stroke-linecap="round" stroke-linejoin="round"/>
<path d="M3.00001 15.188C2.3431 14.0563 1.99804 12.7706 2.00001 11.462C2.00001 7.341 5.35801 4 9.50001 4H14.5C18.642 4 22 7.341 22 11.462C22 14.712 19.913 17.476 17 18.5" stroke="white" stroke-width="1.5" stroke-linecap="round" stroke-linejoin="round"/>
</svg>
