<svg width="55" height="44" viewBox="0 0 55 44" fill="none" xmlns="http://www.w3.org/2000/svg">
<g id="tela-logo">
<path id="Ellipse 15" d="M46.5143 3.77115C46.5143 3.02524 46.7354 2.29607 47.1499 1.67586C47.5643 1.05565 48.1533 0.572257 48.8424 0.286807C49.5316 0.00135672 50.2899 -0.0733303 51.0215 0.072191C51.753 0.217712 52.425 0.576907 52.9525 1.10435C53.4799 1.63179 53.8391 2.3038 53.9846 3.03538C54.1302 3.76697 54.0555 4.52528 53.77 5.21442C53.4846 5.90355 53.0012 6.49257 52.381 6.90698C51.7608 7.32139 51.0316 7.54258 50.2857 7.54258L50.2857 3.77115L46.5143 3.77115Z" fill="#A8D5BA"/>
<path id="Rectangle 251" d="M0 21.8286C0 17.4103 3.58172 13.8286 8 13.8286H30.1714V36C30.1714 40.4183 26.5897 44 22.1714 44H0V21.8286Z" fill="white"/>
<path id="Rectangle 252" d="M32.6855 10.2856C32.6855 8.0765 34.4764 6.28564 36.6855 6.28564H47.7713V17.3714C47.7713 19.5805 45.9804 21.3714 43.7713 21.3714H32.6855V10.2856Z" fill="white"/>
</g>
</svg>
