<svg width="151" height="24" viewBox="0 0 151 24" fill="none" xmlns="http://www.w3.org/2000/svg">
<path fill-rule="evenodd" clip-rule="evenodd" d="M51.792 2C51.792 0.895431 52.6874 0 53.792 0H148.668C149.772 0 150.668 0.895431 150.668 2V21.5419C150.668 22.6464 149.772 23.5419 148.668 23.5419H53.792C52.6874 23.5419 51.792 22.6464 51.792 21.5419V2ZM143.212 4.97219C143.162 5.41163 143.124 5.83853 143.099 6.25286C143.086 6.6672 143.08 6.98109 143.08 7.19454C143.08 7.42054 143.086 7.64026 143.099 7.85371C143.111 8.0546 143.124 8.2241 143.137 8.36222H142.703C142.628 7.62143 142.521 7.03759 142.383 6.6107C142.245 6.17125 142.006 5.86364 141.667 5.68786C141.341 5.49952 140.845 5.40535 140.18 5.40535H138.616C138.19 5.40535 137.863 5.44302 137.637 5.51836C137.424 5.58113 137.279 5.72552 137.204 5.95153C137.129 6.16497 137.091 6.50398 137.091 6.96853V11.4132H138.334C138.748 11.4132 139.062 11.3316 139.276 11.1684C139.502 10.9926 139.665 10.7729 139.765 10.5092C139.866 10.2456 139.935 9.97562 139.972 9.69939C140.01 9.41061 140.048 9.15322 140.085 8.92722H140.519C140.468 9.64289 140.443 10.1891 140.443 10.5657C140.456 10.9424 140.462 11.2877 140.462 11.6016C140.462 11.9155 140.468 12.2607 140.481 12.6374C140.494 13.0141 140.525 13.5603 140.575 14.2759H140.142C140.092 13.8742 140.029 13.4849 139.954 13.1083C139.891 12.719 139.74 12.4051 139.502 12.1666C139.276 11.9155 138.886 11.7899 138.334 11.7899H137.091V16.31C137.091 16.762 137.129 17.101 137.204 17.327C137.279 17.553 137.424 17.7036 137.637 17.779C137.863 17.8417 138.19 17.8731 138.616 17.8731H139.991C140.782 17.8731 141.379 17.7664 141.78 17.553C142.195 17.3395 142.49 16.9942 142.666 16.5171C142.854 16.0274 142.992 15.3683 143.08 14.5396H143.513C143.476 14.8786 143.457 15.3306 143.457 15.8956C143.457 16.1342 143.463 16.4795 143.476 16.9315C143.501 17.3709 143.538 17.8292 143.589 18.3063C142.948 18.2812 142.226 18.2686 141.423 18.2686C140.619 18.2561 139.903 18.2498 139.276 18.2498H138.202C137.775 18.2498 137.311 18.2561 136.808 18.2686C136.306 18.2686 135.798 18.2749 135.283 18.2875C134.768 18.2875 134.278 18.2937 133.814 18.3063V17.9296C134.241 17.9045 134.561 17.8543 134.774 17.779C135 17.7036 135.151 17.553 135.226 17.327C135.302 17.101 135.339 16.762 135.339 16.31V6.96853C135.339 6.50398 135.302 6.16497 135.226 5.95153C135.151 5.72552 135 5.57486 134.774 5.49952C134.561 5.41163 134.241 5.36141 133.814 5.34886V4.97219C134.278 4.98474 134.768 4.9973 135.283 5.00985C135.798 5.00985 136.306 5.01613 136.808 5.02869H138.202H139.276H141.234C141.975 5.01613 142.634 4.9973 143.212 4.97219ZM133.157 5.34886V4.97219C132.969 4.98474 132.768 4.9973 132.555 5.00985C132.341 5.02241 132.071 5.02869 131.745 5.02869C131.419 5.02869 131.067 5.02241 130.69 5.00985C130.314 4.9973 129.943 4.98474 129.579 4.97219V5.34886C130.106 5.36141 130.508 5.4493 130.784 5.61252C131.061 5.77575 131.205 6.05197 131.218 6.4412C131.23 6.81787 131.105 7.34521 130.841 8.02321L127.777 15.9822L124.362 6.93087C124.199 6.50398 124.124 6.18381 124.136 5.97036C124.161 5.74436 124.281 5.58741 124.494 5.49952C124.72 5.41163 125.046 5.36141 125.473 5.34886V4.97219C125.21 4.98474 124.864 4.9973 124.438 5.00985C124.011 5.02241 123.552 5.02869 123.063 5.02869C122.711 5.02869 122.347 5.02241 121.97 5.00985C121.606 4.9973 121.299 4.98474 121.048 4.97219V5.34886C121.248 5.36141 121.468 5.4493 121.707 5.61252C121.945 5.76319 122.159 6.07708 122.347 6.5542L126.942 18.4005H127.018H127.093H127.168H127.244L131.67 6.98737C131.883 6.42236 132.122 6.02058 132.385 5.78203C132.662 5.54347 132.919 5.39908 133.157 5.34886ZM91.8122 18.1366V17.7599C92.0508 17.7097 92.3082 17.5653 92.5844 17.3268C92.8481 17.0882 93.0866 16.6864 93.3001 16.1214L97.726 4.70833H97.8013H97.8766H97.952H98.0273L102.623 16.5546C102.811 17.0317 103.024 17.3456 103.263 17.4963C103.502 17.6595 103.721 17.7474 103.922 17.7599V18.1366C103.671 18.1241 103.363 18.1115 102.999 18.0989C102.623 18.0864 102.259 18.0801 101.907 18.0801C101.417 18.0801 100.959 18.0864 100.532 18.0989C100.105 18.1115 99.76 18.1241 99.4963 18.1366V17.7599C99.9232 17.7474 100.25 17.6972 100.476 17.6093C100.689 17.5214 100.808 17.3644 100.833 17.1384C100.846 16.925 100.771 16.6048 100.607 16.1779L97.1926 7.12664L94.1288 15.0856C93.8651 15.7636 93.7395 16.2909 93.7521 16.6676C93.7647 17.0568 93.909 17.333 94.1853 17.4963C94.4615 17.6595 94.8633 17.7474 95.3906 17.7599V18.1366C95.0265 18.1241 94.6561 18.1115 94.2794 18.0989C93.9028 18.0864 93.5512 18.0801 93.2248 18.0801C92.8983 18.0801 92.6284 18.0864 92.4149 18.0989C92.2015 18.1115 92.0006 18.1241 91.8122 18.1366ZM120.372 5.34886V4.97219C120.083 4.98474 119.719 4.9973 119.279 5.00985C118.852 5.02241 118.419 5.02869 117.98 5.02869C117.49 5.02869 117.032 5.02241 116.605 5.00985C116.178 4.9973 115.833 4.98474 115.569 4.97219V5.34886C115.996 5.36141 116.316 5.41163 116.529 5.49952C116.755 5.57486 116.906 5.72552 116.981 5.95153C117.057 6.16497 117.094 6.50398 117.094 6.96853V16.31C117.094 16.762 117.057 17.101 116.981 17.327C116.906 17.553 116.755 17.7036 116.529 17.779C116.316 17.8543 115.996 17.9045 115.569 17.9296V18.3063C115.833 18.2812 116.178 18.2686 116.605 18.2686C117.032 18.2561 117.49 18.2498 117.98 18.2498C118.419 18.2498 118.852 18.2561 119.279 18.2686C119.719 18.2686 120.083 18.2812 120.372 18.3063V17.9296C119.945 17.9045 119.618 17.8543 119.392 17.779C119.179 17.7036 119.034 17.553 118.959 17.327C118.884 17.101 118.846 16.762 118.846 16.31V6.96853C118.846 6.50398 118.884 6.16497 118.959 5.95153C119.034 5.72552 119.179 5.57486 119.392 5.49952C119.618 5.41163 119.945 5.36141 120.372 5.34886ZM114.231 4.97219C114.181 5.4493 114.143 5.91386 114.118 6.36586C114.106 6.80531 114.099 7.14431 114.099 7.38287C114.099 7.68421 114.106 7.96671 114.118 8.23038C114.131 8.49405 114.143 8.72633 114.156 8.92722H113.723C113.635 8.04832 113.515 7.35776 113.365 6.85553C113.214 6.34075 112.951 5.97036 112.574 5.74436C112.197 5.51836 111.613 5.40535 110.822 5.40535H109.805V16.1216C109.805 16.6238 109.849 17.0005 109.937 17.2516C110.038 17.5027 110.226 17.6722 110.502 17.7601C110.778 17.848 111.18 17.9045 111.707 17.9296V18.3063C111.381 18.2812 110.967 18.2686 110.464 18.2686C109.962 18.2561 109.454 18.2498 108.939 18.2498C108.374 18.2498 107.84 18.2561 107.338 18.2686C106.848 18.2686 106.453 18.2812 106.152 18.3063V17.9296C106.679 17.9045 107.081 17.848 107.357 17.7601C107.633 17.6722 107.815 17.5027 107.903 17.2516C108.004 17.0005 108.054 16.6238 108.054 16.1216V5.40535H107.037C106.258 5.40535 105.674 5.51836 105.285 5.74436C104.909 5.97036 104.645 6.34075 104.494 6.85553C104.344 7.35776 104.224 8.04832 104.136 8.92722H103.703C103.728 8.72633 103.741 8.49405 103.741 8.23038C103.753 7.96671 103.76 7.68421 103.76 7.38287C103.76 7.14431 103.747 6.80531 103.722 6.36586C103.71 5.91386 103.678 5.4493 103.628 4.97219C104.155 4.98474 104.727 4.9973 105.342 5.00985C105.97 5.02241 106.597 5.02869 107.225 5.02869H108.939H110.634C111.262 5.02869 111.89 5.02241 112.517 5.00985C113.145 4.9973 113.716 4.98474 114.231 4.97219ZM90.755 6.25286C90.7801 5.83853 90.8177 5.41163 90.868 4.97219C90.2904 4.9973 89.6312 5.01613 88.8904 5.02869H86.9318H85.8583H84.4646C83.9623 5.01613 83.4538 5.00985 82.9391 5.00985C82.4243 4.9973 81.9346 4.98474 81.47 4.97219V5.34886C81.8969 5.36141 82.2171 5.41163 82.4306 5.49952C82.6566 5.57486 82.8072 5.72552 82.8826 5.95153C82.9579 6.16497 82.9956 6.50398 82.9956 6.96853V16.31C82.9956 16.762 82.9579 17.101 82.8826 17.327C82.8072 17.553 82.6566 17.7036 82.4306 17.779C82.2171 17.8543 81.8969 17.9045 81.47 17.9296V18.3063C81.9346 18.2937 82.4243 18.2875 82.9391 18.2875C83.4538 18.2749 83.9623 18.2686 84.4646 18.2686C84.9668 18.2561 85.4314 18.2498 85.8583 18.2498H86.9318C87.5595 18.2498 88.2752 18.2561 89.0788 18.2686C89.8823 18.2686 90.6043 18.2812 91.2446 18.3063C91.1944 17.8292 91.1567 17.3709 91.1316 16.9315C91.1191 16.4795 91.1128 16.1342 91.1128 15.8956C91.1128 15.3306 91.1316 14.8786 91.1693 14.5396H90.7361C90.6482 15.3683 90.5101 16.0274 90.3218 16.5171C90.146 16.9942 89.851 17.3395 89.4366 17.553C89.0348 17.7664 88.4384 17.8731 87.6474 17.8731H86.2726C85.8457 17.8731 85.5192 17.8417 85.2932 17.779C85.0798 17.7036 84.9354 17.553 84.8601 17.327C84.7847 17.101 84.7471 16.762 84.7471 16.31V11.7899H85.9901C86.5425 11.7899 86.9318 11.9155 87.1578 12.1666C87.3963 12.4051 87.547 12.719 87.6098 13.1083C87.6851 13.4849 87.7479 13.8742 87.7981 14.2759H88.2313C88.181 13.5603 88.1497 13.0141 88.1371 12.6374C88.1245 12.2607 88.1183 11.9155 88.1183 11.6016C88.1183 11.2877 88.112 10.9424 88.0994 10.5657C88.0994 10.1891 88.1246 9.64289 88.1748 8.92722H87.7416C87.7039 9.15322 87.6663 9.41061 87.6286 9.69939C87.5909 9.97562 87.5219 10.2456 87.4214 10.5092C87.321 10.7729 87.1578 10.9926 86.9318 11.1684C86.7183 11.3316 86.4044 11.4132 85.9901 11.4132H84.7471V6.96853C84.7471 6.50398 84.7847 6.16497 84.8601 5.95153C84.9354 5.72552 85.0798 5.58113 85.2932 5.51836C85.5192 5.44302 85.8457 5.40535 86.2726 5.40535H87.8358C88.5012 5.40535 88.9972 5.49952 89.3236 5.68786C89.6626 5.86364 89.9012 6.17125 90.0393 6.6107C90.1774 7.03759 90.2841 7.62143 90.3595 8.36222H90.7926C90.7801 8.2241 90.7675 8.0546 90.755 7.85371C90.7424 7.64026 90.7361 7.42054 90.7361 7.19454C90.7361 6.98109 90.7424 6.6672 90.755 6.25286ZM69.2577 4.97219C69.5214 4.98474 69.8666 4.9973 70.2935 5.00985C70.7204 5.02241 71.141 5.02869 71.5554 5.02869C72.1455 5.02869 72.7105 5.02241 73.2504 5.00985C73.7903 4.9973 74.1732 4.99102 74.3992 4.99102C75.4163 4.99102 76.2575 5.13541 76.9229 5.42419C77.6009 5.71297 78.1032 6.10847 78.4296 6.6107C78.7686 7.10037 78.9381 7.65282 78.9381 8.26805C78.9381 8.64472 78.8628 9.0465 78.7121 9.47339C78.5614 9.90028 78.2978 10.3021 77.9211 10.6787C77.557 11.0554 77.0548 11.3693 76.4144 11.6204C76.0905 11.7411 75.7233 11.8312 75.3127 11.8909C75.3796 11.9006 75.4455 11.9109 75.5104 11.9217C76.3517 12.0599 76.9543 12.3172 77.3184 12.6939C77.6951 13.058 77.9713 13.6293 78.1471 14.4078L78.6179 16.3288C78.7435 16.8812 78.8691 17.283 78.9946 17.5341C79.1327 17.7727 79.3399 17.8857 79.6161 17.8731C79.8296 17.8606 80.0053 17.7915 80.1435 17.666C80.2941 17.5404 80.4511 17.3709 80.6143 17.1575L80.8968 17.3646C80.6331 17.7539 80.3569 18.0552 80.0681 18.2686C79.7919 18.4695 79.3964 18.57 78.8816 18.57C78.4171 18.57 78.009 18.4319 77.6574 18.1556C77.3059 17.8794 77.0422 17.3395 76.8664 16.536L76.4521 14.6526C76.3391 14.1127 76.2073 13.6481 76.0566 13.2589C75.9185 12.8571 75.7176 12.5433 75.4539 12.3172C75.2028 12.0912 74.8261 11.9782 74.3239 11.9782H73.9849H72.5347V16.31C72.5347 16.762 72.5724 17.101 72.6477 17.327C72.7231 17.553 72.8674 17.7036 73.0809 17.779C73.3069 17.8543 73.6333 17.9045 74.0602 17.9296V18.3063C73.7715 18.2812 73.4073 18.2686 72.9679 18.2686C72.541 18.2561 72.1078 18.2498 71.6684 18.2498C71.1787 18.2498 70.7204 18.2561 70.2935 18.2686C69.8666 18.2686 69.5214 18.2812 69.2577 18.3063V17.9296C69.6846 17.9045 70.0048 17.8543 70.2182 17.779C70.4442 17.7036 70.5949 17.553 70.6702 17.327C70.7455 17.101 70.7832 16.762 70.7832 16.31V6.96853C70.7832 6.50398 70.7455 6.16497 70.6702 5.95153C70.5949 5.72552 70.4442 5.57486 70.2182 5.49952C70.0048 5.41163 69.6846 5.36141 69.2577 5.34886V4.97219ZM73.7966 11.6016H72.5347V6.96853C72.5347 6.31564 72.6226 5.88247 72.7984 5.66902C72.9742 5.45558 73.3508 5.34886 73.9284 5.34886C75.071 5.34886 75.8745 5.62508 76.3391 6.17753C76.8162 6.71742 77.0548 7.48332 77.0548 8.47522C77.0548 9.05278 76.9669 9.58011 76.7911 10.0572C76.6279 10.5218 76.3077 10.8985 75.8306 11.1872C75.366 11.4635 74.688 11.6016 73.7966 11.6016ZM64.5236 5.08507C63.9962 4.83395 63.3182 4.70839 62.4895 4.70839C61.3219 4.70839 60.286 5.00345 59.382 5.59357C58.4906 6.18369 57.7874 7.00608 57.2727 8.06076C56.7579 9.11543 56.5005 10.3459 56.5005 11.7521C56.5005 13.1835 56.7453 14.4076 57.235 15.4247C57.7372 16.4417 58.4341 17.2201 59.3255 17.76C60.2295 18.2999 61.2779 18.5698 62.4707 18.5698C63.2868 18.5698 63.9523 18.4506 64.4671 18.212C64.9944 17.9609 65.4903 17.6721 65.9549 17.3457C66.2311 17.1699 66.4257 17.1511 66.5387 17.2892C66.6643 17.4273 66.7522 17.7663 66.8024 18.3062H67.2356C67.2105 17.8291 67.1916 17.2452 67.1791 16.5547C67.1665 15.8515 67.1602 14.9287 67.1602 13.7861H66.7271C66.6392 14.552 66.5387 15.1484 66.4257 15.5753C66.3253 16.0022 66.137 16.3977 65.8607 16.7618C65.5092 17.2641 65.0258 17.6282 64.4106 17.8542C63.7953 18.0802 63.2052 18.1932 62.6402 18.1932C62.0375 18.1932 61.4725 18.0551 60.9452 17.7788C60.4304 17.4901 59.9784 17.0694 59.5892 16.517C59.2125 15.9645 58.9175 15.2865 58.704 14.483C58.4906 13.6669 58.3838 12.7315 58.3838 11.6768C58.3838 10.6598 58.478 9.74322 58.6663 8.9271C58.8672 8.11098 59.1435 7.41414 59.495 6.83658C59.8591 6.25902 60.286 5.81957 60.7757 5.51824C61.2779 5.20434 61.8366 5.0474 62.4519 5.0474C63.1048 5.0474 63.7263 5.16668 64.3164 5.40523C64.9065 5.63124 65.3962 6.00163 65.7854 6.51641C65.9612 6.74241 66.0993 6.96841 66.1997 7.19442C66.3127 7.42042 66.4069 7.69664 66.4822 8.02309C66.5576 8.33698 66.6392 8.76387 66.7271 9.30377H67.1602C67.1602 8.21143 67.1665 7.33253 67.1791 6.66708C67.1916 6.00163 67.2105 5.43662 67.2356 4.97206H66.8024C66.7522 5.51196 66.658 5.85724 66.5199 6.00791C66.3944 6.14602 66.206 6.12091 65.9549 5.93257C65.5406 5.60613 65.0635 5.32362 64.5236 5.08507Z" fill="black"/>
<path d="M28.22 4.70837V5.08504C27.7931 5.0976 27.4667 5.14782 27.2407 5.23571C27.0272 5.31105 26.8828 5.46171 26.8075 5.68772C26.7322 5.90116 26.6945 6.24016 26.6945 6.70472V16.0461C26.6945 16.4981 26.7322 16.8371 26.8075 17.0631C26.8828 17.2891 27.0272 17.4398 27.2407 17.5152C27.4667 17.5779 27.7931 17.6093 28.22 17.6093H29.5949C30.185 17.6093 30.6621 17.5465 31.0262 17.421C31.4029 17.2954 31.6979 17.1008 31.9114 16.8371C32.1374 16.5609 32.3069 16.1968 32.4199 15.7448C32.5329 15.2928 32.6208 14.7403 32.6836 14.0875H33.1167C33.0791 14.4767 33.0602 14.9915 33.0602 15.6318C33.0602 15.8704 33.0665 16.2156 33.0791 16.6676C33.1042 17.1071 33.1418 17.5654 33.1921 18.0425C32.5517 18.0174 31.8298 18.0048 31.0262 18.0048C30.2226 17.9923 29.507 17.986 28.8792 17.986C28.603 17.986 28.2451 17.986 27.8057 17.986C27.3788 17.986 26.9142 17.9923 26.412 18.0048C25.9098 18.0048 25.4013 18.0111 24.8865 18.0237C24.3717 18.0237 23.882 18.0299 23.4175 18.0425V17.6658C23.8444 17.6407 24.1645 17.5905 24.378 17.5152C24.604 17.4398 24.7547 17.2891 24.83 17.0631C24.9053 16.8371 24.943 16.4981 24.943 16.0461V6.70472C24.943 6.24016 24.9053 5.90116 24.83 5.68772C24.7547 5.46171 24.604 5.31105 24.378 5.23571C24.1645 5.14782 23.8444 5.0976 23.4175 5.08504V4.70837C23.6811 4.72093 24.0264 4.73349 24.4533 4.74604C24.8802 4.7586 25.3385 4.76487 25.8282 4.76487C26.2676 4.76487 26.7008 4.7586 27.1277 4.74604C27.5671 4.73349 27.9312 4.72093 28.22 4.70837Z" fill="black"/>
<path d="M21.3388 4.70837C21.2886 5.14782 21.2509 5.57471 21.2258 5.98905C21.2133 6.40339 21.207 6.71728 21.207 6.93073C21.207 7.15673 21.2133 7.37645 21.2258 7.5899C21.2384 7.79079 21.2509 7.96029 21.2635 8.0984H20.8303C20.755 7.35762 20.6483 6.77378 20.5102 6.34689C20.372 5.90744 20.1335 5.59983 19.7945 5.42405C19.468 5.23571 18.9721 5.14154 18.3066 5.14154H16.7435C16.3166 5.14154 15.9901 5.17921 15.7641 5.25455C15.5507 5.31732 15.4063 5.46171 15.3309 5.68772C15.2556 5.90116 15.2179 6.24016 15.2179 6.70472V16.0461C15.2179 16.4981 15.2556 16.8371 15.3309 17.0631C15.4063 17.2891 15.5507 17.4398 15.7641 17.5152C15.9901 17.5779 16.3166 17.6093 16.7435 17.6093H18.1183C18.9093 17.6093 19.5057 17.5026 19.9075 17.2892C20.3218 17.0757 20.6169 16.7304 20.7927 16.2533C20.981 15.7636 21.1191 15.1045 21.207 14.2758H21.6402C21.6025 14.6148 21.5837 15.0668 21.5837 15.6318C21.5837 15.8704 21.5899 16.2156 21.6025 16.6676C21.6276 17.1071 21.6653 17.5654 21.7155 18.0425C21.0752 18.0174 20.3532 18.0048 19.5497 18.0048C18.7461 17.9923 18.0304 17.986 17.4026 17.986C17.1264 17.986 16.7686 17.986 16.3291 17.986C15.9022 17.986 15.4377 17.9923 14.9354 18.0048C14.4332 18.0048 13.9247 18.0111 13.4099 18.0237C12.8951 18.0237 12.4055 18.0299 11.9409 18.0425V17.6658C12.3678 17.6407 12.688 17.5905 12.9014 17.5152C13.1274 17.4398 13.2781 17.2891 13.3534 17.0631C13.4288 16.8371 13.4664 16.4981 13.4664 16.0461V6.70472C13.4664 6.24016 13.4288 5.90116 13.3534 5.68772C13.2781 5.46171 13.1274 5.31105 12.9014 5.23571C12.688 5.14782 12.3678 5.0976 11.9409 5.08504V4.70837C12.4055 4.72093 12.8951 4.73349 13.4099 4.74604C13.9247 4.74604 14.4332 4.75232 14.9354 4.76487C15.4377 4.76487 15.9022 4.76487 16.3291 4.76487C16.7686 4.76487 17.1264 4.76487 17.4026 4.76487C17.9802 4.76487 18.6331 4.76487 19.3613 4.76487C20.1021 4.75232 20.7613 4.73349 21.3388 4.70837ZM18.0995 11.1494C18.0995 11.1494 18.0995 11.2122 18.0995 11.3378C18.0995 11.4633 18.0995 11.5261 18.0995 11.5261H14.6529C14.6529 11.5261 14.6529 11.4633 14.6529 11.3378C14.6529 11.2122 14.6529 11.1494 14.6529 11.1494H18.0995ZM18.6456 8.66341C18.5954 9.37908 18.5703 9.92525 18.5703 10.3019C18.5829 10.6786 18.5891 11.0239 18.5891 11.3378C18.5891 11.6517 18.5954 11.9969 18.608 12.3736C18.6205 12.7503 18.6519 13.2964 18.7021 14.0121H18.269C18.2188 13.6103 18.156 13.2211 18.0806 12.8444C18.0179 12.4552 17.8672 12.1413 17.6286 11.9028C17.4026 11.6517 17.0134 11.5261 16.461 11.5261V11.1494C16.8753 11.1494 17.1892 11.0678 17.4026 10.9046C17.6286 10.7288 17.7919 10.5091 17.8923 10.2454C17.9927 9.98175 18.0618 9.71181 18.0995 9.43558C18.1371 9.1468 18.1748 8.88941 18.2125 8.66341H18.6456Z" fill="black"/>
<path d="M10.6033 4.70837C10.553 5.18549 10.5154 5.65005 10.4903 6.10205C10.4777 6.5415 10.4714 6.8805 10.4714 7.11906C10.4714 7.4204 10.4777 7.7029 10.4903 7.96657C10.5028 8.23024 10.5154 8.46252 10.5279 8.66341H10.0948C10.0069 7.78451 9.88759 7.09395 9.73692 6.59172C9.58625 6.07694 9.32258 5.70655 8.94591 5.48055C8.56924 5.25454 7.9854 5.14154 7.1944 5.14154H6.17739V15.8578C6.17739 16.36 6.22133 16.7367 6.30922 16.9878C6.40967 17.2389 6.598 17.4084 6.87423 17.4963C7.15045 17.5842 7.55223 17.6407 8.07957 17.6658V18.0425C7.75312 18.0174 7.33879 18.0048 6.83656 18.0048C6.33433 17.9923 5.82583 17.986 5.31105 17.986C4.74604 17.986 4.21243 17.9923 3.7102 18.0048C3.22053 18.0048 2.82502 18.0174 2.52369 18.0425V17.6658C3.05103 17.6407 3.45281 17.5842 3.72903 17.4963C4.00526 17.4084 4.18731 17.2389 4.2752 16.9878C4.37565 16.7367 4.42587 16.36 4.42587 15.8578V5.14154H3.40886C2.63041 5.14154 2.04657 5.25454 1.65735 5.48055C1.28068 5.70655 1.01701 6.07694 0.866341 6.59172C0.715673 7.09395 0.596394 7.78451 0.508504 8.66341H0.075334C0.100445 8.46252 0.113001 8.23024 0.113001 7.96657C0.125557 7.7029 0.131834 7.4204 0.131834 7.11906C0.131834 6.8805 0.119279 6.5415 0.0941675 6.10205C0.0816118 5.65005 0.0502226 5.18549 0 4.70837C0.527338 4.72093 1.09862 4.73349 1.71385 4.74604C2.34163 4.7586 2.96941 4.76487 3.5972 4.76487C4.22498 4.76487 4.79626 4.76487 5.31105 4.76487C5.82583 4.76487 6.39083 4.76487 7.00606 4.76487C7.63384 4.76487 8.26163 4.7586 8.88941 4.74604C9.51719 4.73349 10.0885 4.72093 10.6033 4.70837Z" fill="black"/>
<path d="M41.528 4.70837L46.1234 16.5546C46.3118 17.0318 46.5252 17.3519 46.7638 17.5152C47.0023 17.6658 47.222 17.7474 47.4229 17.76V18.1367C47.1718 18.1115 46.8642 18.099 46.5001 18.099C46.136 18.0864 45.7719 18.0802 45.4077 18.0802C44.9181 18.0802 44.4598 18.0864 44.0329 18.099C43.606 18.099 43.2607 18.1115 42.9971 18.1367V17.76C43.6374 17.7349 44.0455 17.6282 44.2212 17.4398C44.397 17.2389 44.3593 16.8183 44.1082 16.178L40.6052 6.81773L40.9065 6.57289L37.6295 15.0856C37.4286 15.5879 37.3093 16.0148 37.2717 16.3663C37.234 16.7053 37.2654 16.9753 37.3658 17.1761C37.4788 17.377 37.6609 17.5214 37.912 17.6093C38.1757 17.6972 38.5021 17.7474 38.8914 17.76V18.1367C38.5398 18.1115 38.1694 18.099 37.7802 18.099C37.4035 18.0864 37.0519 18.0802 36.7255 18.0802C36.4116 18.0802 36.1417 18.0864 35.9157 18.099C35.7022 18.099 35.5013 18.1115 35.313 18.1367V17.76C35.5641 17.6972 35.8215 17.5528 36.0852 17.3268C36.3488 17.0883 36.5874 16.6865 36.8008 16.1215L41.2267 4.70837C41.2769 4.70837 41.3272 4.70837 41.3774 4.70837C41.4276 4.70837 41.4778 4.70837 41.528 4.70837Z" fill="black"/>
</svg>
